<svg xmlns="http://www.w3.org/2000/svg" xmlns:xlink="http://www.w3.org/1999/xlink" width="60.629" height="44.126" viewBox="0 0 60.629 44.126">
  <defs>
    <clipPath id="clip-path">
      <rect id="Rectangle_184" data-name="Rectangle 184" width="44.126" height="60.629"/>
    </clipPath>
  </defs>
  <g id="Arrow" transform="translate(60.628) rotate(90)">
    <g id="Group_110" data-name="Group 110" transform="translate(0 0)" clip-path="url(#clip-path)">
      <path id="Path_398" data-name="Path 398" d="M0,52.474c0-7.94,5.365-14.558,10.551-20.956q.488-.605.973-1.2-.483-.6-.973-1.2C5.364,22.712,0,16.094,0,8.156,0,2.553,3.526,0,6.8,0A5.512,5.512,0,0,1,12.27,5.268c0,2.526-1.575,4.22-3.922,4.22A3.519,3.519,0,0,1,4.869,6.408a.613.613,0,0,1,1.225,0A2.328,2.328,0,0,0,8.348,8.262a2.675,2.675,0,0,0,2.7-2.994A4.262,4.262,0,0,0,6.8,1.225c-2.685,0-5.577,2.169-5.577,6.931,0,7.505,5.224,13.951,10.278,20.185.269.332.539.664.8.994,1.025-1.286,2-2.557,2.882-3.816a16.872,16.872,0,0,1-2.8-9.062c0-4.3,2.049-6.548,4.073-6.548a3.213,3.213,0,0,1,2.692,1.647,8.383,8.383,0,0,1,1.074,4.5c0,3.194-1.445,6.307-3.543,9.447a17.978,17.978,0,0,0,3.943,4.081,19.652,19.652,0,0,1,11.046-3.3c8.548,0,12.128,3.452,12.276,3.6a.63.63,0,0,1,0,.871c-.146.146-3.728,3.6-12.276,3.6a19.651,19.651,0,0,1-11.046-3.3,18,18,0,0,0-3.943,4.08c2.1,3.141,3.543,6.254,3.543,9.448a8.373,8.373,0,0,1-1.074,4.495,3.215,3.215,0,0,1-2.692,1.648c-2.024,0-4.073-2.249-4.073-6.548a16.867,16.867,0,0,1,2.8-9.062c-.877-1.26-1.857-2.53-2.882-3.818-.265.33-.535.662-.8,1C6.449,38.523,1.225,44.969,1.225,52.474c0,4.762,2.892,6.929,5.577,6.929a4.315,4.315,0,0,0,4.242-4.042,2.676,2.676,0,0,0-2.7-2.994A2.328,2.328,0,0,0,6.094,54.22a.613.613,0,1,1-1.225,0,3.52,3.52,0,0,1,3.479-3.079c2.347,0,3.922,1.7,3.922,4.22A5.511,5.511,0,0,1,6.8,60.629c-3.276,0-6.8-2.552-6.8-8.154M15.933,26.592c-.875,1.232-1.837,2.472-2.838,3.723,1,1.251,1.963,2.491,2.84,3.723a19.162,19.162,0,0,1,3.673-3.723,19.262,19.262,0,0,1-3.674-3.723m.028,9.665a15.869,15.869,0,0,0-2.345,7.917c0,3.456,1.468,5.323,2.848,5.323a2.043,2.043,0,0,0,1.661-1.084A7.016,7.016,0,0,0,19,44.578c0-2.75-1.224-5.51-3.043-8.322M19,16.052a7.016,7.016,0,0,0-.879-3.834,2.043,2.043,0,0,0-1.661-1.084c-1.38,0-2.848,1.867-2.848,5.323a15.868,15.868,0,0,0,2.345,7.915C17.778,21.56,19,18.8,19,16.052M42.543,30.317c-1.247-.884-4.674-2.81-10.867-2.81a18.264,18.264,0,0,0-9.982,2.809,18.277,18.277,0,0,0,9.982,2.809c6.226,0,9.629-1.922,10.867-2.807" transform="translate(0 0)"/>
    </g>
  </g>
</svg>
