<svg id="Chain" xmlns="http://www.w3.org/2000/svg" xmlns:xlink="http://www.w3.org/1999/xlink" width="8.822" height="372.4" viewBox="0 0 8.822 372.4">
  <defs>
    <clipPath id="clip-path">
      <rect id="Rectangle_262" data-name="Rectangle 262" width="8.822" height="372.4" fill="#f7ba56"/>
    </clipPath>
  </defs>
  <g id="Group_192" data-name="Group 192" clip-path="url(#clip-path)">
    <path id="Path_4761" data-name="Path 4761" d="M8.823,9.041v7.1a3.372,3.372,0,0,1-3.308,3.415H3.309A3.372,3.372,0,0,1,0,16.144v-7.1A3.372,3.372,0,0,1,3.309,5.627H5.515A3.373,3.373,0,0,1,8.823,9.041m-1.89,0A1.442,1.442,0,0,0,5.515,7.579H3.309A1.442,1.442,0,0,0,1.891,9.041v7.1a1.444,1.444,0,0,0,1.418,1.464H5.515a1.443,1.443,0,0,0,1.418-1.464Z" transform="translate(0 -2.716)" fill="#f7ba56"/>
    <path id="Path_4762" data-name="Path 4762" d="M8.59,31.685V25.939a1.111,1.111,0,0,0-.945-1.219A1.111,1.111,0,0,0,6.7,25.939v5.746Z" transform="translate(-3.234 -11.93)" fill="#f7ba56"/>
    <path id="Path_4763" data-name="Path 4763" d="M6.7,0V5.746a1.112,1.112,0,0,0,.945,1.221,1.112,1.112,0,0,0,.945-1.221V0Z" transform="translate(-3.233)" fill="#f7ba56"/>
    <path id="Path_4764" data-name="Path 4764" d="M8.823,47.223v7.1a3.372,3.372,0,0,1-3.308,3.414H3.309A3.372,3.372,0,0,1,0,54.327v-7.1a3.372,3.372,0,0,1,3.308-3.414H5.515a3.373,3.373,0,0,1,3.308,3.414m-1.89,0a1.442,1.442,0,0,0-1.418-1.462H3.309a1.442,1.442,0,0,0-1.418,1.462v7.1A1.443,1.443,0,0,0,3.309,55.79H5.515a1.443,1.443,0,0,0,1.418-1.463Z" transform="translate(0 -21.143)" fill="#f7ba56"/>
    <path id="Path_4765" data-name="Path 4765" d="M8.59,69.867V64.121A1.112,1.112,0,0,0,7.645,62.9,1.112,1.112,0,0,0,6.7,64.121v5.746Z" transform="translate(-3.234 -30.357)" fill="#f7ba56"/>
    <path id="Path_4766" data-name="Path 4766" d="M6.7,38.181v5.746a1.112,1.112,0,0,0,.945,1.22,1.112,1.112,0,0,0,.945-1.22V38.181Z" transform="translate(-3.233 -18.427)" fill="#f7ba56"/>
    <path id="Path_4767" data-name="Path 4767" d="M8.823,85.405v7.1a3.372,3.372,0,0,1-3.308,3.414H3.309A3.372,3.372,0,0,1,0,92.508v-7.1a3.372,3.372,0,0,1,3.308-3.414H5.515a3.373,3.373,0,0,1,3.308,3.414m-1.89,0a1.442,1.442,0,0,0-1.418-1.462H3.309a1.442,1.442,0,0,0-1.418,1.462v7.1a1.443,1.443,0,0,0,1.418,1.463H5.515a1.443,1.443,0,0,0,1.418-1.463Z" transform="translate(0 -39.57)" fill="#f7ba56"/>
    <path id="Path_4768" data-name="Path 4768" d="M8.59,108.049V102.3a1.111,1.111,0,0,0-.945-1.218A1.111,1.111,0,0,0,6.7,102.3v5.746Z" transform="translate(-3.234 -48.785)" fill="#f7ba56"/>
    <path id="Path_4769" data-name="Path 4769" d="M6.7,76.364V82.11a1.112,1.112,0,0,0,.945,1.22,1.112,1.112,0,0,0,.945-1.22V76.364Z" transform="translate(-3.233 -36.854)" fill="#f7ba56"/>
    <path id="Path_4770" data-name="Path 4770" d="M8.823,123.586v7.1A3.373,3.373,0,0,1,5.515,134.1H3.309A3.372,3.372,0,0,1,0,130.689v-7.1a3.372,3.372,0,0,1,3.308-3.414H5.515a3.373,3.373,0,0,1,3.308,3.414m-1.89,0a1.442,1.442,0,0,0-1.418-1.462H3.309a1.442,1.442,0,0,0-1.418,1.462v7.1a1.444,1.444,0,0,0,1.418,1.464H5.515a1.443,1.443,0,0,0,1.418-1.464Z" transform="translate(0 -57.997)" fill="#f7ba56"/>
    <path id="Path_4771" data-name="Path 4771" d="M8.59,146.23v-5.746a1.112,1.112,0,0,0-.945-1.219,1.112,1.112,0,0,0-.945,1.219v5.746Z" transform="translate(-3.234 -67.211)" fill="#f7ba56"/>
    <path id="Path_4772" data-name="Path 4772" d="M6.7,114.545v5.746a1.112,1.112,0,0,0,.945,1.22,1.112,1.112,0,0,0,.945-1.22v-5.746Z" transform="translate(-3.233 -55.281)" fill="#f7ba56"/>
    <path id="Path_4773" data-name="Path 4773" d="M8.823,161.768v7.1a3.372,3.372,0,0,1-3.308,3.414H3.309A3.372,3.372,0,0,1,0,168.872v-7.1a3.372,3.372,0,0,1,3.308-3.414H5.515a3.373,3.373,0,0,1,3.308,3.414m-1.89,0a1.442,1.442,0,0,0-1.418-1.462H3.309a1.442,1.442,0,0,0-1.418,1.462v7.1a1.443,1.443,0,0,0,1.418,1.463H5.515a1.443,1.443,0,0,0,1.418-1.463Z" transform="translate(0 -76.424)" fill="#f7ba56"/>
    <path id="Path_4774" data-name="Path 4774" d="M8.59,184.412v-5.746a1.112,1.112,0,0,0-.945-1.219,1.112,1.112,0,0,0-.945,1.219v5.746Z" transform="translate(-3.234 -85.639)" fill="#f7ba56"/>
    <path id="Path_4775" data-name="Path 4775" d="M6.7,152.727v5.746a1.112,1.112,0,0,0,.945,1.22,1.112,1.112,0,0,0,.945-1.22v-5.746Z" transform="translate(-3.233 -73.708)" fill="#f7ba56"/>
    <path id="Path_4776" data-name="Path 4776" d="M8.823,199.95v7.1a3.372,3.372,0,0,1-3.308,3.414H3.309A3.372,3.372,0,0,1,0,207.054v-7.1a3.372,3.372,0,0,1,3.308-3.414H5.515a3.373,3.373,0,0,1,3.308,3.414m-1.89,0a1.442,1.442,0,0,0-1.418-1.462H3.309a1.442,1.442,0,0,0-1.418,1.462v7.1a1.443,1.443,0,0,0,1.418,1.463H5.515a1.443,1.443,0,0,0,1.418-1.463Z" transform="translate(0 -94.851)" fill="#f7ba56"/>
    <path id="Path_4777" data-name="Path 4777" d="M8.59,222.594v-5.746a1.112,1.112,0,0,0-.945-1.219,1.112,1.112,0,0,0-.945,1.219v5.746Z" transform="translate(-3.234 -104.066)" fill="#f7ba56"/>
    <path id="Path_4778" data-name="Path 4778" d="M6.7,190.909v5.746a1.112,1.112,0,0,0,.945,1.22,1.112,1.112,0,0,0,.945-1.22v-5.746Z" transform="translate(-3.233 -92.135)" fill="#f7ba56"/>
    <path id="Path_4779" data-name="Path 4779" d="M8.823,238.132v7.1a3.372,3.372,0,0,1-3.308,3.414H3.309A3.372,3.372,0,0,1,0,245.235v-7.1a3.373,3.373,0,0,1,3.308-3.415H5.515a3.373,3.373,0,0,1,3.308,3.415m-1.89,0a1.442,1.442,0,0,0-1.418-1.462H3.309a1.442,1.442,0,0,0-1.418,1.462v7.1A1.443,1.443,0,0,0,3.309,246.7H5.515a1.443,1.443,0,0,0,1.418-1.463Z" transform="translate(0 -113.278)" fill="#f7ba56"/>
    <path id="Path_4780" data-name="Path 4780" d="M8.59,260.776V255.03a1.111,1.111,0,0,0-.945-1.219A1.111,1.111,0,0,0,6.7,255.03v5.746Z" transform="translate(-3.234 -122.493)" fill="#f7ba56"/>
    <path id="Path_4781" data-name="Path 4781" d="M6.7,229.091v5.746a1.112,1.112,0,0,0,.945,1.221,1.112,1.112,0,0,0,.945-1.221v-5.746Z" transform="translate(-3.233 -110.563)" fill="#f7ba56"/>
    <path id="Path_4782" data-name="Path 4782" d="M8.823,276.314v7.1a3.372,3.372,0,0,1-3.308,3.414H3.309A3.372,3.372,0,0,1,0,283.417v-7.1A3.372,3.372,0,0,1,3.309,272.9H5.515a3.373,3.373,0,0,1,3.308,3.414m-1.89,0a1.442,1.442,0,0,0-1.418-1.462H3.309a1.442,1.442,0,0,0-1.418,1.462v7.1a1.444,1.444,0,0,0,1.418,1.464H5.515a1.444,1.444,0,0,0,1.418-1.464Z" transform="translate(0 -131.706)" fill="#f7ba56"/>
    <path id="Path_4783" data-name="Path 4783" d="M8.59,298.958v-5.747a1.111,1.111,0,0,0-.945-1.218,1.111,1.111,0,0,0-.945,1.218v5.747Z" transform="translate(-3.234 -140.92)" fill="#f7ba56"/>
    <path id="Path_4784" data-name="Path 4784" d="M6.7,267.272v5.746a1.112,1.112,0,0,0,.945,1.22,1.112,1.112,0,0,0,.945-1.22v-5.746Z" transform="translate(-3.233 -128.989)" fill="#f7ba56"/>
    <path id="Path_4785" data-name="Path 4785" d="M8.823,314.5v7.1a3.372,3.372,0,0,1-3.308,3.414H3.309A3.372,3.372,0,0,1,0,321.6v-7.1a3.372,3.372,0,0,1,3.308-3.414H5.515A3.373,3.373,0,0,1,8.823,314.5m-1.89,0a1.442,1.442,0,0,0-1.418-1.462H3.309A1.443,1.443,0,0,0,1.891,314.5v7.1a1.444,1.444,0,0,0,1.418,1.464H5.515A1.443,1.443,0,0,0,6.933,321.6Z" transform="translate(0 -150.132)" fill="#f7ba56"/>
    <path id="Path_4786" data-name="Path 4786" d="M8.59,337.139v-5.746a1.112,1.112,0,0,0-.945-1.219,1.112,1.112,0,0,0-.945,1.219v5.746Z" transform="translate(-3.234 -159.347)" fill="#f7ba56"/>
    <path id="Path_4787" data-name="Path 4787" d="M6.7,305.455V311.2a1.112,1.112,0,0,0,.945,1.22,1.112,1.112,0,0,0,.945-1.22v-5.746Z" transform="translate(-3.233 -147.417)" fill="#f7ba56"/>
    <path id="Path_4788" data-name="Path 4788" d="M8.823,352.677v7.1A3.373,3.373,0,0,1,5.515,363.2H3.309A3.372,3.372,0,0,1,0,359.78v-7.1a3.372,3.372,0,0,1,3.308-3.414H5.515a3.373,3.373,0,0,1,3.308,3.414m-1.89,0a1.442,1.442,0,0,0-1.418-1.462H3.309a1.442,1.442,0,0,0-1.418,1.462v7.1a1.444,1.444,0,0,0,1.418,1.464H5.515a1.443,1.443,0,0,0,1.418-1.464Z" transform="translate(0 -168.559)" fill="#f7ba56"/>
    <path id="Path_4789" data-name="Path 4789" d="M8.59,375.321v-5.746a1.112,1.112,0,0,0-.945-1.219,1.112,1.112,0,0,0-.945,1.219v5.746Z" transform="translate(-3.234 -177.774)" fill="#f7ba56"/>
    <path id="Path_4790" data-name="Path 4790" d="M6.7,343.636v5.746a1.112,1.112,0,0,0,.945,1.22,1.112,1.112,0,0,0,.945-1.22v-5.746Z" transform="translate(-3.233 -165.844)" fill="#f7ba56"/>
    <path id="Path_4791" data-name="Path 4791" d="M8.823,390.859v7.1a3.372,3.372,0,0,1-3.308,3.414H3.309A3.372,3.372,0,0,1,0,397.963v-7.1a3.372,3.372,0,0,1,3.308-3.414H5.515a3.373,3.373,0,0,1,3.308,3.414m-1.89,0A1.442,1.442,0,0,0,5.515,389.4H3.309a1.442,1.442,0,0,0-1.418,1.462v7.1a1.443,1.443,0,0,0,1.418,1.463H5.515a1.443,1.443,0,0,0,1.418-1.463Z" transform="translate(0 -186.987)" fill="#f7ba56"/>
    <path id="Path_4792" data-name="Path 4792" d="M8.59,413.5v-5.746a1.112,1.112,0,0,0-.945-1.219,1.112,1.112,0,0,0-.945,1.219V413.5Z" transform="translate(-3.234 -196.201)" fill="#f7ba56"/>
    <path id="Path_4793" data-name="Path 4793" d="M6.7,381.818v5.746a1.112,1.112,0,0,0,.945,1.22,1.112,1.112,0,0,0,.945-1.22v-5.746Z" transform="translate(-3.233 -184.271)" fill="#f7ba56"/>
    <path id="Path_4794" data-name="Path 4794" d="M8.823,428.987v7.1a3.372,3.372,0,0,1-3.308,3.414H3.309A3.372,3.372,0,0,1,0,436.091v-7.1a3.372,3.372,0,0,1,3.308-3.414H5.515a3.373,3.373,0,0,1,3.308,3.414m-1.89,0a1.442,1.442,0,0,0-1.418-1.462H3.309a1.443,1.443,0,0,0-1.418,1.462v7.1a1.443,1.443,0,0,0,1.418,1.463H5.515a1.443,1.443,0,0,0,1.418-1.463Z" transform="translate(0 -205.388)" fill="#f7ba56"/>
    <path id="Path_4795" data-name="Path 4795" d="M8.59,451.632v-5.746a1.111,1.111,0,0,0-.945-1.219,1.111,1.111,0,0,0-.945,1.219v5.746Z" transform="translate(-3.234 -214.603)" fill="#f7ba56"/>
    <path id="Path_4796" data-name="Path 4796" d="M6.7,419.946v5.746a1.112,1.112,0,0,0,.945,1.221,1.112,1.112,0,0,0,.945-1.221v-5.746Z" transform="translate(-3.233 -202.672)" fill="#f7ba56"/>
    <path id="Path_4797" data-name="Path 4797" d="M8.823,467.169v7.1a3.372,3.372,0,0,1-3.308,3.414H3.309A3.372,3.372,0,0,1,0,474.273v-7.1a3.372,3.372,0,0,1,3.308-3.414H5.515a3.373,3.373,0,0,1,3.308,3.414m-1.89,0a1.442,1.442,0,0,0-1.418-1.462H3.309a1.443,1.443,0,0,0-1.418,1.462v7.1a1.443,1.443,0,0,0,1.418,1.463H5.515a1.443,1.443,0,0,0,1.418-1.463Z" transform="translate(0 -223.815)" fill="#f7ba56"/>
    <path id="Path_4798" data-name="Path 4798" d="M8.59,489.813v-5.746a1.112,1.112,0,0,0-.945-1.219,1.112,1.112,0,0,0-.945,1.219v5.746Z" transform="translate(-3.234 -233.03)" fill="#f7ba56"/>
    <path id="Path_4799" data-name="Path 4799" d="M6.7,458.128v5.746a1.112,1.112,0,0,0,.945,1.22,1.112,1.112,0,0,0,.945-1.22v-5.746Z" transform="translate(-3.233 -221.099)" fill="#f7ba56"/>
    <path id="Path_4800" data-name="Path 4800" d="M8.823,505.351v7.1a3.372,3.372,0,0,1-3.308,3.414H3.309A3.372,3.372,0,0,1,0,512.455v-7.1a3.372,3.372,0,0,1,3.308-3.414H5.515a3.373,3.373,0,0,1,3.308,3.414m-1.89,0a1.442,1.442,0,0,0-1.418-1.462H3.309a1.443,1.443,0,0,0-1.418,1.462v7.1a1.443,1.443,0,0,0,1.418,1.463H5.515a1.443,1.443,0,0,0,1.418-1.463Z" transform="translate(0 -242.242)" fill="#f7ba56"/>
    <path id="Path_4801" data-name="Path 4801" d="M8.59,527.995v-5.746a1.111,1.111,0,0,0-.945-1.218,1.111,1.111,0,0,0-.945,1.218v5.746Z" transform="translate(-3.234 -251.457)" fill="#f7ba56"/>
    <path id="Path_4802" data-name="Path 4802" d="M6.7,496.31v5.746a1.112,1.112,0,0,0,.945,1.22,1.112,1.112,0,0,0,.945-1.22V496.31Z" transform="translate(-3.233 -239.526)" fill="#f7ba56"/>
    <path id="Path_4803" data-name="Path 4803" d="M8.823,543.532v7.1a3.372,3.372,0,0,1-3.308,3.414H3.309A3.372,3.372,0,0,1,0,550.636v-7.1a3.372,3.372,0,0,1,3.308-3.414H5.515a3.373,3.373,0,0,1,3.308,3.414m-1.89,0a1.442,1.442,0,0,0-1.418-1.462H3.309a1.443,1.443,0,0,0-1.418,1.462v7.1A1.443,1.443,0,0,0,3.309,552.1H5.515a1.443,1.443,0,0,0,1.418-1.463Z" transform="translate(0 -260.669)" fill="#f7ba56"/>
    <path id="Path_4804" data-name="Path 4804" d="M8.59,566.176V560.43a1.112,1.112,0,0,0-.945-1.219A1.112,1.112,0,0,0,6.7,560.43v5.746Z" transform="translate(-3.234 -269.883)" fill="#f7ba56"/>
    <path id="Path_4805" data-name="Path 4805" d="M6.7,534.491v5.746a1.112,1.112,0,0,0,.945,1.22,1.112,1.112,0,0,0,.945-1.22v-5.746Z" transform="translate(-3.233 -257.953)" fill="#f7ba56"/>
    <path id="Path_4806" data-name="Path 4806" d="M8.823,581.714v7.1a3.372,3.372,0,0,1-3.308,3.414H3.309A3.372,3.372,0,0,1,0,588.818v-7.1A3.372,3.372,0,0,1,3.309,578.3H5.515a3.373,3.373,0,0,1,3.308,3.414m-1.89,0a1.442,1.442,0,0,0-1.418-1.462H3.309a1.443,1.443,0,0,0-1.418,1.462v7.1a1.443,1.443,0,0,0,1.418,1.463H5.515a1.443,1.443,0,0,0,1.418-1.463Z" transform="translate(0 -279.096)" fill="#f7ba56"/>
    <path id="Path_4807" data-name="Path 4807" d="M8.59,604.358v-5.746a1.112,1.112,0,0,0-.945-1.219,1.112,1.112,0,0,0-.945,1.219v5.746Z" transform="translate(-3.234 -288.311)" fill="#f7ba56"/>
    <path id="Path_4808" data-name="Path 4808" d="M6.7,572.673v5.746a1.112,1.112,0,0,0,.945,1.22,1.112,1.112,0,0,0,.945-1.22v-5.746Z" transform="translate(-3.233 -276.38)" fill="#f7ba56"/>
    <path id="Path_4809" data-name="Path 4809" d="M8.823,619.9V627a3.372,3.372,0,0,1-3.308,3.414H3.309A3.372,3.372,0,0,1,0,627v-7.1a3.372,3.372,0,0,1,3.308-3.414H5.515A3.373,3.373,0,0,1,8.823,619.9m-1.89,0a1.442,1.442,0,0,0-1.418-1.462H3.309A1.442,1.442,0,0,0,1.891,619.9V627a1.443,1.443,0,0,0,1.418,1.463H5.515A1.443,1.443,0,0,0,6.933,627Z" transform="translate(0 -297.523)" fill="#f7ba56"/>
    <path id="Path_4810" data-name="Path 4810" d="M8.59,642.54v-5.746a1.112,1.112,0,0,0-.945-1.219,1.112,1.112,0,0,0-.945,1.219v5.746Z" transform="translate(-3.234 -306.738)" fill="#f7ba56"/>
    <path id="Path_4811" data-name="Path 4811" d="M6.7,610.855V616.6a1.112,1.112,0,0,0,.945,1.22,1.112,1.112,0,0,0,.945-1.22v-5.746Z" transform="translate(-3.233 -294.808)" fill="#f7ba56"/>
    <path id="Path_4812" data-name="Path 4812" d="M8.823,658.078v7.1A3.372,3.372,0,0,1,5.515,668.6H3.309A3.372,3.372,0,0,1,0,665.181v-7.1a3.373,3.373,0,0,1,3.308-3.415H5.515a3.373,3.373,0,0,1,3.308,3.415m-1.89,0a1.442,1.442,0,0,0-1.418-1.462H3.309a1.442,1.442,0,0,0-1.418,1.462v7.1a1.443,1.443,0,0,0,1.418,1.463H5.515a1.443,1.443,0,0,0,1.418-1.463Z" transform="translate(0 -315.95)" fill="#f7ba56"/>
    <path id="Path_4813" data-name="Path 4813" d="M8.59,680.722v-5.746a1.111,1.111,0,0,0-.945-1.219,1.111,1.111,0,0,0-.945,1.219v5.746Z" transform="translate(-3.234 -325.165)" fill="#f7ba56"/>
    <path id="Path_4814" data-name="Path 4814" d="M6.7,649.037v5.746A1.112,1.112,0,0,0,7.644,656a1.112,1.112,0,0,0,.945-1.22v-5.746Z" transform="translate(-3.233 -313.235)" fill="#f7ba56"/>
    <path id="Path_4815" data-name="Path 4815" d="M8.823,696.26v7.1a3.372,3.372,0,0,1-3.308,3.414H3.309A3.372,3.372,0,0,1,0,703.363v-7.1a3.372,3.372,0,0,1,3.308-3.414H5.515a3.373,3.373,0,0,1,3.308,3.414m-1.89,0A1.442,1.442,0,0,0,5.515,694.8H3.309a1.442,1.442,0,0,0-1.418,1.462v7.1a1.444,1.444,0,0,0,1.418,1.464H5.515a1.444,1.444,0,0,0,1.418-1.464Z" transform="translate(0 -334.378)" fill="#f7ba56"/>
    <path id="Path_4816" data-name="Path 4816" d="M6.7,687.218v5.746a1.112,1.112,0,0,0,.945,1.221,1.112,1.112,0,0,0,.945-1.221v-5.746Z" transform="translate(-3.233 -331.661)" fill="#f7ba56"/>
  </g>
</svg>
