<svg id="Flourish" xmlns="http://www.w3.org/2000/svg" xmlns:xlink="http://www.w3.org/1999/xlink" width="207.486" height="68.148" viewBox="0 0 207.486 68.148">
  <defs>
    <clipPath id="clip-path">
      <rect id="Rectangle_207" data-name="Rectangle 207" width="207.486" height="68.148" fill="#f7ba56"/>
    </clipPath>
  </defs>
  <g id="Group_154" data-name="Group 154" transform="translate(0 0)" clip-path="url(#clip-path)">
    <path id="Path_1857" data-name="Path 1857" d="M42.7,18.909c3.152,0,6.882,7.111,6.882,13.118a.67.67,0,0,0,1.341,0c0-6.007,3.73-13.118,6.882-13.118A.67.67,0,0,0,58,17.6a9.474,9.474,0,0,0-5.339.211,3.637,3.637,0,0,1,1.184-2.657.672.672,0,0,0,.27-.811c-.032-.082-3.191-8.316-3.191-13.671a.67.67,0,0,0-1.341,0c0,5.352-3.161,13.589-3.193,13.671a.67.67,0,0,0,.273.811,3.645,3.645,0,0,1,1.184,2.657,9.475,9.475,0,0,0-5.339-.211.67.67,0,0,0,.193,1.311m5.566.514a.672.672,0,0,0,.957-.575c.007-.134.118-3.055-1.407-4.491a64.378,64.378,0,0,0,2.436-8.286,64.379,64.379,0,0,0,2.436,8.286c-1.525,1.436-1.414,4.357-1.407,4.491a.662.662,0,0,0,.323.543.671.671,0,0,0,.632.032,8,8,0,0,1,2.734-.732c-2.08,1.655-3.816,4.925-4.718,8.4-.9-3.475-2.643-6.748-4.723-8.4a7.942,7.942,0,0,1,2.736.734" transform="translate(53.492 0)" fill="#f7ba56"/>
    <path id="Path_1858" data-name="Path 1858" d="M147.957,52.608c-9.827-.684-14.686-4.409-14.734-4.448a.676.676,0,0,0-1.064.359c-.045.166-1.186,4.086-8.543,4.086H72.406c-8.85,0-15.793-2.318-20.077-6.7A16.009,16.009,0,0,1,47.792,34.06a11.852,11.852,0,0,1,12.13-11.575,7.67,7.67,0,0,1,7.493,7.791c0,.1-.009.2-.016.3A4.883,4.883,0,0,1,65.236,34.3c-1.059.427-1.62-.791-2.925-.791a1.287,1.287,0,0,0-1.461,1.332A1.587,1.587,0,0,0,62.1,36.39a.666.666,0,0,0,.275.07,6.147,6.147,0,0,0,4.38-1.661c-.586,3.641-.823,7.873,3.434,8.771a.74.74,0,0,0,.141.014.69.69,0,0,0,.15-.025,1.054,1.054,0,0,0,1.1-.641A1.086,1.086,0,0,0,71,41.495c-.855-.361-1.943.032-2.584-.561-.982-1.541-.65-4.177-.093-7.309a26.124,26.124,0,0,0,.418-2.982c.007-.091.018-.18.02-.268l0-.082,0-.073-.007-.03a9.025,9.025,0,0,0-8.8-9.043,13.154,13.154,0,0,0-12.039,7.161c.677-4.9,2.543-9,5.471-11.75a10.607,10.607,0,0,1,9.1-3.034.671.671,0,0,0,.334-1.3c-.845-.286-8.332-2.709-10.807.161a.664.664,0,0,0-.155.336s-.084.55-.17,1.118l-.677-.468a.668.668,0,0,0-.977.25c-1.682,3.309-3.57,10.35-3.745,17.993a.466.466,0,0,0,0,.08,37.657,37.657,0,0,0,.255,5.361.677.677,0,0,0,.109.282,17.021,17.021,0,0,0,4.711,9.5c4.543,4.648,11.818,7.107,21.037,7.107h75.505a.67.67,0,0,0,.045-1.339M52.858,15.1c.061-.425.227-1.509.3-1.964.9-.861,2.8-.918,4.7-.677a12.984,12.984,0,0,0-5.05,2.809.683.683,0,0,0,.048-.168M50.9,14.928l.914.63a.674.674,0,0,0,.591.084,17.105,17.105,0,0,0-3.114,4.041A31.717,31.717,0,0,1,50.9,14.928m79.144,37.678a7.116,7.116,0,0,0,3.059-2.9,25.75,25.75,0,0,0,6.807,2.9Z" transform="translate(58.906 14.002)" fill="#f7ba56"/>
    <path id="Path_1859" data-name="Path 1859" d="M74.891,20.792c.891.57,1.761.552,2.409,1.584a13,13,0,0,1,.368,9.773c-1.58,3.809-5.3,5.846-10.761,5.9-9.723-.111-16.487-5.093-16.487-12.2a6.406,6.406,0,0,1,1.607-4.341c1.752-1.2,3.08.223,4.518.223a1.578,1.578,0,0,0,.682-3,.635.635,0,0,0-.293-.164,6.027,6.027,0,0,0-5.1,1.277,7.6,7.6,0,0,0-2.759,6.009c0,7.7,7.348,13.321,17.557,13.532a.326.326,0,0,0,.05.009c.068,0,.13,0,.2,0,.116,0,.23,0,.348,0H75.9c.132,0,.27,0,.423,0,.114,0,.241,0,.366,0h36.493a.67.67,0,0,0,.089-1.334c-2.316-.3-8.755-1.477-10.7-3.255a.672.672,0,0,0-1.018.136,7.393,7.393,0,0,1-6.064,3.114H91.113a22.489,22.489,0,0,0,4.566-4.53c2.27-2.72,4.414-5.291,7.616-5.291a7.781,7.781,0,0,1,4.236,1.089c1.409,1.136,1.009,2.868,1.009,4.2a1.4,1.4,0,0,0,1.4,1.4,1.39,1.39,0,0,0,1.4-1.116.636.636,0,0,0,.039-.2c0-2.6-2.2-6.725-8.091-6.725-3.83,0-6.277,2.934-8.646,5.773-2.311,2.77-4.5,5.389-7.823,5.389H85.166a9.36,9.36,0,0,0,3.125-1.836,5.34,5.34,0,0,0,1.748-4.023c0-2.089-2.459-4.516-5.632-4.516a.67.67,0,0,0-.264,1.286,3.272,3.272,0,0,1,1.611,3.8c-.57,2.641-3.723,5.414-10.816,5.259h-.014a.584.584,0,0,0-.155.032H73.681a10.063,10.063,0,0,0,5.225-5.393c2.016-4.87.382-11.132-2.409-13.925a.669.669,0,0,0-.38-.177,1.265,1.265,0,0,0-1.623.457,1.287,1.287,0,0,0,.4,1.777m27.357,15.45a16.11,16.11,0,0,0,4.352,1.811h-6.427a9.046,9.046,0,0,0,2.075-1.811m-15.182-3.2a5.119,5.119,0,0,0-.464-3.518,3.476,3.476,0,0,1,2.1,2.666,3.993,3.993,0,0,1-1.327,3.045,8.172,8.172,0,0,1-2.82,1.623,6.686,6.686,0,0,0,2.514-3.816" transform="translate(62.465 23.454)" fill="#f7ba56"/>
    <path id="Path_1860" data-name="Path 1860" d="M102.031,37.061a37.626,37.626,0,0,0,.255-5.359.5.5,0,0,0,0-.082c-.175-7.641-2.066-14.684-3.745-17.993a.671.671,0,0,0-.98-.25l-.675.468c-.086-.568-.173-1.118-.173-1.118a.664.664,0,0,0-.155-.336c-2.477-2.873-9.961-.448-10.8-.161a.671.671,0,0,0,.332,1.3,10.616,10.616,0,0,1,9.1,3.034c2.927,2.752,4.793,6.846,5.471,11.75a13.154,13.154,0,0,0-12.036-7.161,9,9,0,0,0-8.8,9.046l-.007.027c0,.023,0,.048,0,.07s0,.055,0,.084c0,.091.014.18.018.268a26.643,26.643,0,0,0,.418,2.982c.557,3.132.889,5.771-.093,7.309-.641.593-1.73.2-2.584.561A1.085,1.085,0,0,0,77,42.918a1.05,1.05,0,0,0,1.1.641.647.647,0,0,0,.15.025.717.717,0,0,0,.139-.014c4.259-.9,4.023-5.13,3.434-8.771a6.2,6.2,0,0,0,4.38,1.661.667.667,0,0,0,.277-.07,1.585,1.585,0,0,0,1.255-1.55,1.287,1.287,0,0,0-1.461-1.332c-1.3,0-1.859,1.2-2.9.8a4.865,4.865,0,0,1-2.186-3.7c-.007-.111-.018-.23-.018-.332a7.674,7.674,0,0,1,7.5-7.784,11.856,11.856,0,0,1,12.13,11.575A16.011,16.011,0,0,1,96.251,45.9c-4.284,4.384-11.225,6.7-20.077,6.7H24.966c-7.359,0-8.5-3.92-8.543-4.082a.671.671,0,0,0-1.064-.364c-.05.039-4.909,3.764-14.734,4.448a.67.67,0,0,0,.045,1.339h75.5c9.221,0,16.5-2.459,21.037-7.107a17.038,17.038,0,0,0,4.714-9.5.653.653,0,0,0,.107-.28M8.668,52.607a25.776,25.776,0,0,0,6.809-2.9,7.093,7.093,0,0,0,3.057,2.9ZM90.755,12.47c1.889-.23,3.777-.175,4.67.668.068.455.234,1.539.3,1.964a.683.683,0,0,0,.048.168,13.006,13.006,0,0,0-5.014-2.8m5.421,3.173a.677.677,0,0,0,.589-.084l.914-.632a31.587,31.587,0,0,1,1.609,4.757,17.1,17.1,0,0,0-3.111-4.041" transform="translate(0 14.001)" fill="#f7ba56"/>
    <path id="Path_1861" data-name="Path 1861" d="M14.382,39.393h36.5c.125,0,.252,0,.366,0,.152,0,.291,0,.423,0h8.673c.116,0,.232,0,.348-.007.068,0,.13.007.2.007.018,0,.032-.009.05-.009,10.207-.214,17.555-5.836,17.555-13.534a7.6,7.6,0,0,0-2.757-6.009,6.042,6.042,0,0,0-5.1-1.277.655.655,0,0,0-.293.164,1.58,1.58,0,0,0,.682,3.007c1.439,0,2.766-1.427,4.518-.225a6.415,6.415,0,0,1,1.607,4.341c0,7.1-6.764,12.089-16.489,12.2-5.461-.055-9.182-2.089-10.759-5.9a13,13,0,0,1,.368-9.773c.648-1.03,1.516-1.014,2.409-1.582a1.287,1.287,0,0,0,.4-1.777,1.267,1.267,0,0,0-1.625-.457.649.649,0,0,0-.377.177c-2.793,2.791-4.427,9.055-2.409,13.925a10.053,10.053,0,0,0,5.223,5.391h-1.1a.715.715,0,0,0-.155-.03c-7.1.141-10.243-2.618-10.816-5.259a3.28,3.28,0,0,1,1.614-3.8.669.669,0,0,0-.264-1.284c-3.173,0-5.634,2.427-5.634,4.514a5.338,5.338,0,0,0,1.75,4.023A9.337,9.337,0,0,0,42.4,38.053H40.744c-3.33,0-5.514-2.616-7.825-5.389-2.366-2.836-4.814-5.771-8.643-5.771-5.9,0-8.093,4.125-8.093,6.725a.653.653,0,0,0,.041.2,1.388,1.388,0,0,0,1.4,1.114,1.405,1.405,0,0,0,1.4-1.4c0-1.339-.4-3.07,1.009-4.2a7.776,7.776,0,0,1,4.236-1.089c3.2,0,5.345,2.568,7.614,5.289a22.44,22.44,0,0,0,4.568,4.53H32.08a7.4,7.4,0,0,1-6.064-3.111A.668.668,0,0,0,25,34.8c-1.95,1.775-8.386,2.95-10.7,3.255a.67.67,0,0,0,.086,1.334m24.489-7.2a3.474,3.474,0,0,1,2.1-2.664,5.115,5.115,0,0,0-.461,3.518,6.686,6.686,0,0,0,2.514,3.816,8.172,8.172,0,0,1-2.82-1.623,4,4,0,0,1-1.327-3.048m-13.548,4.05A9.08,9.08,0,0,0,27.4,38.053H20.971a16.038,16.038,0,0,0,4.352-1.809" transform="translate(17.452 23.455)" fill="#f7ba56"/>
    <path id="Path_1862" data-name="Path 1862" d="M48.731,26.172a.671.671,0,0,0-.948,0l-3.945,3.945a.671.671,0,0,0,0,.948l3.827,3.825a.662.662,0,0,0,.473.2.671.671,0,0,0,.475-.2l3.943-3.945a.664.664,0,0,0,0-.945Zm-.593,7.3-2.877-2.877,3-3,2.88,2.877Z" transform="translate(55.545 33.061)" fill="#f7ba56"/>
  </g>
</svg>
