<?xml version="1.0" encoding="UTF-8"?>
<svg id="Layer_1" data-name="Layer 1" xmlns="http://www.w3.org/2000/svg" width="4mm" height="4mm" version="1.1" xmlns:xlink="http://www.w3.org/1999/xlink" viewBox="0 0 11.2 11.5">
  <defs>
    <style>
      .cls-1 {
        fill: #000;
      }

      .cls-1, .cls-2 {
        stroke-width: 0px;
      }

      .cls-2 {
        fill: none;
      }

      .cls-3 {
        clip-path: url(#clippath);
      }
    </style>
    <clipPath id="clippath">
      <rect class="cls-2" width="11.2" height="11.5"/>
    </clipPath>
  </defs>
  <g class="cls-3">
    <g id="Group_163" data-name="Group 163">
      <path id="Path_1926" data-name="Path 1926" class="cls-1" d="M10.8,2.6c.6-.6.6-1.6,0-2.2-.6-.6-1.5-.6-2.1,0h0c-.7-.4-1.7-.1-2.1.6-.3.5-.3,1.2.1,1.7h0c0,.5,0,.9.2,1.2l-1.1,1.1-1.1-1.1c.2-.3.3-.7.2-1.1h0c.5-.8.4-1.7-.3-2.2-.5-.4-1.1-.4-1.7-.1h0C2-.1,1,0,.4.5c-.5.6-.5,1.5,0,2.1,0,0,0,0,0,0-.4.7-.2,1.7.5,2.1.5.3,1.2.3,1.7,0h.2c.3,0,.7,0,1-.2l1.1,1.1L.5,10.2c-.2.2-.2.4,0,.6.2.2.4.2.6,0,0,0,0,0,0,0l.7-.7.6.6h-.1c-.2.3-.2.5,0,.7.2.2.4.2.6,0,0,0,0,0,0,0l.4-.4c.2-.2.2-.4,0-.6l-.9-.9.2-.2.9.9c.2.2.4.2.6,0l.4-.4c.2-.2.1-.4,0-.6-.2-.1-.4-.1-.6,0h0c0,0-.6-.5-.6-.5l4.2-4.2c.3.2.7.2,1,.2h.2c.7.5,1.6.3,2.1-.4.4-.5.4-1.1,0-1.7,0,0,0,0,0,0M1,2c-.3-.3-.3-.7,0-1,.3-.3.7-.3,1,0,0,0,0,0,0,0-.1.3-.2.5-.2.8-.3,0-.5,0-.8.2,0,0,0,0,0,0M2.3,3.9c-.3.3-.7.3-1,0-.2-.2-.3-.6,0-.9,0,0,0,0,0,0,.2-.2.5-.3.8-.1,0,0,.1,0,.2.1.3.3.3.7,0,1M3.8,3.6s0,0,0,.1c0,0-.1,0-.2.1,0,0-.1,0-.2,0,0-.2,0-.4,0-.6.2,0,.3,0,.5,0,0,0,0,.2,0,.3M4,2.2s0,0,0,0c-.3.3-.7.3-1,0,0,0,0,0,0,0-.2-.3-.2-.7,0-1,0,0,0,0,.1-.1.3-.2.8-.1,1,.2.2.2.1.6,0,.8M7.7,3.8c0,0-.1,0-.2-.1,0,0,0,0,0-.1,0,0,0-.2,0-.3.2,0,.3,0,.5,0,0,.2,0,.4,0,.6,0,0-.1,0-.2,0M8.4,2.2s0,0,0,.1c0,0,0,0,0,0-.3.3-.7.3-1,0s-.3-.7,0-1c.2-.2.6-.3.9,0,0,0,0,0,.1.1.2.2.3.6.1.8M9.9,3.9c-.3.3-.7.3-1,0s-.3-.7,0-1h0c0,0,.1,0,.2-.1.4-.2.8,0,1,.3.1.3,0,.6-.1.8M10.2,2s0,0,0,0c-.2-.1-.5-.2-.8-.2,0-.3,0-.6-.2-.8,0,0,0,0,0,0,.3-.3.7-.2,1,0,.2.3.2.7,0,.9"/>
      <path id="Path_1927" data-name="Path 1927" class="cls-1" d="M6.4,5.9l-.6.6,2.3,2.3-.6.6h0c-.2-.3-.4-.3-.6-.1s-.2.4,0,.6c0,0,0,0,0,0l.4.4c.2.2.4.2.6,0l.9-.9.2.2-.9.9c-.2.2-.2.4,0,.6l.4.4c.2.2.4.1.6,0,.1-.2.1-.4,0-.6h-.1c0-.1.6-.7.6-.7l.7.7c.2.2.4.2.6,0s.2-.4,0-.6c0,0,0,0,0,0l-4.4-4.4Z"/>
    </g>
  </g>
</svg>