<svg xmlns="http://www.w3.org/2000/svg" width="22.223" height="22.224" viewBox="0 0 22.223 22.224">
  <g id="Instagram" transform="translate(-56.863)">
    <path id="Path_1381" data-name="Path 1381" d="M228.247,22.912a1.979,1.979,0,0,0-1.134-1.134,3.3,3.3,0,0,0-1.11-.206c-.63-.029-.819-.035-2.415-.035s-1.785.006-2.415.035a3.3,3.3,0,0,0-1.11.206,1.979,1.979,0,0,0-1.134,1.134,3.3,3.3,0,0,0-.206,1.11c-.029.63-.035.819-.035,2.415s.006,1.785.035,2.415a3.306,3.306,0,0,0,.206,1.11,1.979,1.979,0,0,0,1.134,1.134,3.3,3.3,0,0,0,1.11.206c.63.029.819.035,2.415.035s1.785-.006,2.415-.035a3.3,3.3,0,0,0,1.11-.206,1.979,1.979,0,0,0,1.134-1.134,3.315,3.315,0,0,0,.206-1.11c.029-.63.035-.819.035-2.415s-.006-1.785-.035-2.415a3.31,3.31,0,0,0-.206-1.11m-4.659,6.594a3.069,3.069,0,1,1,3.069-3.069,3.069,3.069,0,0,1-3.069,3.069m3.191-5.542a.717.717,0,1,1,.717-.717.717.717,0,0,1-.717.717" transform="translate(-155.612 -15.325)"/>
    <path id="Path_1382" data-name="Path 1382" d="M230.761,31.619a1.992,1.992,0,1,0,1.992,1.992,1.992,1.992,0,0,0-1.992-1.992" transform="translate(-162.786 -22.5)"/>
    <path id="Path_1383" data-name="Path 1383" d="M208.264,0a11.112,11.112,0,1,0,11.111,11.112A11.112,11.112,0,0,0,208.264,0m5.94,13.576a4.39,4.39,0,0,1-.278,1.451,3.055,3.055,0,0,1-1.748,1.748,4.391,4.391,0,0,1-1.451.278c-.637.029-.841.036-2.464.036s-1.827-.007-2.464-.036a4.391,4.391,0,0,1-1.451-.278,3.057,3.057,0,0,1-1.748-1.748,4.391,4.391,0,0,1-.278-1.451c-.029-.637-.036-.841-.036-2.464s.007-1.827.036-2.464A4.392,4.392,0,0,1,202.6,7.2a3.058,3.058,0,0,1,1.748-1.748,4.383,4.383,0,0,1,1.451-.278c.637-.029.841-.036,2.464-.036s1.827.007,2.464.036a4.383,4.383,0,0,1,1.451.278A3.056,3.056,0,0,1,213.927,7.2a4.392,4.392,0,0,1,.278,1.451c.029.638.036.841.036,2.464s-.007,1.827-.036,2.464" transform="translate(-140.289)"/>
  </g>
</svg>
