<?xml version="1.0" encoding="UTF-8"?>
<svg xmlns="http://www.w3.org/2000/svg" xmlns:xlink="http://www.w3.org/1999/xlink" id="Group_164" data-name="Group 164" width="35.048" height="35.908" viewBox="0 0 35.048 35.908">
  <defs>
    <clipPath id="clip-path">
      <rect id="Rectangle_213" data-name="Rectangle 213" width="35.048" height="35.908" fill="#f7ba56"></rect>
    </clipPath>
  </defs>
  <g id="Group_163" data-name="Group 163" transform="translate(0 0)" clip-path="url(#clip-path)">
    <path id="Path_1926" data-name="Path 1926" d="M33.654,8.139a4.769,4.769,0,0,0-6.745-6.745c-.048.048-.1.1-.141.147a4.768,4.768,0,0,0-6.157,7.023l-.073.35a4.857,4.857,0,0,0,.557,3.438l-3.571,3.571-3.571-3.571a4.858,4.858,0,0,0,.557-3.438l-.073-.35A4.768,4.768,0,0,0,8.28,1.541c-.045-.048-.093-.1-.141-.147A4.769,4.769,0,0,0,1.394,8.139c.062.062.126.123.191.18a4.769,4.769,0,0,0,6.887,6.3l.539.083a4.847,4.847,0,0,0,3.133-.57l3.583,3.583L1.436,32.011a1.271,1.271,0,0,0,1.8,1.8l2.281-2.281,1.8,1.8-.415.415a1.271,1.271,0,0,0,1.8,1.8l1.313-1.313a1.271,1.271,0,0,0,0-1.8l-2.7-2.7L8,29.039l2.7,2.7a1.271,1.271,0,0,0,1.8,0l1.175-1.175a1.271,1.271,0,0,0-1.8-1.8l-.276.276-1.8-1.8L22.9,14.136a4.846,4.846,0,0,0,3.132.57l.539-.083a4.769,4.769,0,0,0,6.887-6.3c.065-.057.129-.118.191-.18M3.191,6.342A2.228,2.228,0,0,1,6.342,3.192c.05.05.1.1.14.153a4.748,4.748,0,0,0-.6,2.642,4.768,4.768,0,0,0-2.448.563,2.149,2.149,0,0,1-.241-.207m4.073,5.983A2.228,2.228,0,0,1,3.879,9.45a2.189,2.189,0,0,1,.234-.275A2.229,2.229,0,0,1,6.66,8.746a2.3,2.3,0,0,1,.6.428,2.23,2.23,0,0,1,0,3.151m4.482-1.23a2.275,2.275,0,0,1-.31.407,2.313,2.313,0,0,1-.53.422,2.253,2.253,0,0,1-.669.254,4.779,4.779,0,0,0,.209-1.727,4.719,4.719,0,0,0,1.6-.211,2.206,2.206,0,0,1-.305.856m.7-4.108a2.181,2.181,0,0,1-.235.276,2.23,2.23,0,0,1-3.149,0c-.05-.05-.1-.1-.14-.153a2.221,2.221,0,0,1,.138-3,2.2,2.2,0,0,1,.377-.3,2.227,2.227,0,0,1,3.008,3.177m11.7,4.937a2.313,2.313,0,0,1-.53-.422,2.275,2.275,0,0,1-.31-.407A2.212,2.212,0,0,1,23,10.239a4.719,4.719,0,0,0,1.6.211,4.786,4.786,0,0,0,.209,1.727,2.253,2.253,0,0,1-.669-.254M26.38,6.735a2.268,2.268,0,0,1-.253.374c-.044.053-.09.1-.14.153a2.228,2.228,0,1,1-.376-3.453,2.179,2.179,0,0,1,.377.3,2.233,2.233,0,0,1,.391,2.623m4.556,5.59a2.228,2.228,0,1,1-3.151-3.151,2.294,2.294,0,0,1,.6-.428,2.228,2.228,0,0,1,2.548,3.579m.921-5.983a2.12,2.12,0,0,1-.241.207,4.767,4.767,0,0,0-2.448-.563,4.751,4.751,0,0,0-.6-2.642c.044-.053.09-.1.14-.153a2.228,2.228,0,0,1,3.151,3.151" transform="translate(0 0)" fill="#f7ba56"></path>
    <path id="Path_1927" data-name="Path 1927" d="M58.441,57.255l-1.8,1.8,7.1,7.1-1.8,1.8-.276-.276a1.271,1.271,0,0,0-1.8,1.8l1.175,1.175a1.271,1.271,0,0,0,1.8,0l2.7-2.7.691.691-2.7,2.7a1.27,1.27,0,0,0,0,1.8l1.313,1.313a1.271,1.271,0,1,0,1.8-1.8l-.415-.415,1.8-1.8,2.281,2.281a1.271,1.271,0,0,0,1.8-1.8Z" transform="translate(-38.498 -38.914)" fill="#f7ba56"></path>
  </g>
</svg>
