<svg xmlns="http://www.w3.org/2000/svg" xmlns:xlink="http://www.w3.org/1999/xlink" width="113.421" height="114.421" viewBox="0 0 113.421 114.421">
  <defs>
    <clipPath id="clip-path">
      <rect id="Rectangle_208" data-name="Rectangle 208" width="73.842" height="31" fill="#f7ba56"/>
    </clipPath>
  </defs>
  <g id="Flourish_corner" data-name="Flourish corner" transform="translate(-40.603 -40)">
    <g id="Flourish" transform="translate(80.182 40)">
      <g id="Group_155" data-name="Group 155" transform="translate(0 0)" clip-path="url(#clip-path)">
        <path id="Path_1863" data-name="Path 1863" d="M73.842.467A.484.484,0,0,0,73.357,0h-54.5C12.2,0,6.95,1.774,3.672,5.13a12.292,12.292,0,0,0-3.4,6.856.462.462,0,0,0-.079.2,27.283,27.283,0,0,0-.184,3.869c0,.02,0,.039,0,.059a33.95,33.95,0,0,0,2.7,12.988.486.486,0,0,0,.707.18l.487-.337c.063.409.123.807.123.807A.468.468,0,0,0,4.14,30c1.786,2.073,7.189.323,7.8.117a.484.484,0,0,0-.24-.934,7.657,7.657,0,0,1-6.572-2.191,14.063,14.063,0,0,1-3.949-8.48,9.494,9.494,0,0,0,8.689,5.169,6.515,6.515,0,0,0,6.352-6.527c0-.008.005-.015.005-.023s0-.035,0-.052,0-.039,0-.058c0-.066-.009-.13-.015-.195a19.334,19.334,0,0,0-.3-2.153c-.4-2.26-.643-4.164.066-5.275.463-.428,1.249-.145,1.865-.405a.785.785,0,0,0,.42-1.028.759.759,0,0,0-.79-.462.5.5,0,0,0-.11-.019.424.424,0,0,0-.1.011c-3.075.648-2.9,3.7-2.48,6.33a4.425,4.425,0,0,0-3.16-1.2.479.479,0,0,0-.2.051,1.143,1.143,0,0,0-.906,1.118.928.928,0,0,0,1.055.961c.943,0,1.347-.879,2.112-.57a3.528,3.528,0,0,1,1.562,2.684c.005.074.011.152.012.22a5.539,5.539,0,0,1-5.41,5.623,8.559,8.559,0,0,1-8.756-8.355A11.556,11.556,0,0,1,4.364,5.805C7.456,2.641,12.469.968,18.856.968H55.82c5.312,0,6.136,2.829,6.168,2.95a.486.486,0,0,0,.768.259c.035-.028,3.543-2.718,10.635-3.21a.484.484,0,0,0,.451-.5M4.712,27.919a9.393,9.393,0,0,0,3.645,2.028c-1.372.173-2.742.132-3.4-.488-.051-.329-.17-1.111-.215-1.418a.448.448,0,0,0-.035-.121M2.173,24.732a12.31,12.31,0,0,0,2.246,2.917.484.484,0,0,0-.427.062l-.659.455a22.964,22.964,0,0,1-1.161-3.434M67.584.968A18.6,18.6,0,0,0,62.67,3.061,5.116,5.116,0,0,0,60.462.968Z" transform="translate(0 0)" fill="#f7ba56"/>
        <path id="Path_1864" data-name="Path 1864" d="M21.764,17.454a.913.913,0,0,0,1.172.329.467.467,0,0,0,.274-.127A10.085,10.085,0,0,0,24.947,7.6a7.254,7.254,0,0,0-3.77-3.893h.785a.444.444,0,0,0,.111.023h.011c5.12-.11,7.394,1.89,7.808,3.8a2.363,2.363,0,0,1-1.165,2.742.484.484,0,0,0,.191.929c2.291,0,4.066-1.753,4.066-3.26a3.855,3.855,0,0,0-1.263-2.9,6.787,6.787,0,0,0-2.255-1.326h1.2c2.4,0,3.979,1.89,5.648,3.89,1.708,2.048,3.474,4.166,6.239,4.166,4.255,0,5.842-2.977,5.842-4.854a.455.455,0,0,0-.03-.142,1,1,0,0,0-1.012-.807A1.014,1.014,0,0,0,46.34,6.979c0,.966.289,2.216-.729,3.036a5.617,5.617,0,0,1-3.058.785c-2.311,0-3.858-1.855-5.5-3.818a16.245,16.245,0,0,0-3.3-3.27h3.159A5.34,5.34,0,0,1,41.3,5.959a.485.485,0,0,0,.735.1c1.406-1.282,6.052-2.131,7.725-2.35a.483.483,0,0,0-.063-.962H23.35l-.264,0-.3,0h-6.26c-.085,0-.168,0-.251,0-.05,0-.094,0-.144,0-.012,0-.023.005-.036.007C8.723,2.9,3.419,6.963,3.419,12.52a5.481,5.481,0,0,0,1.99,4.337,4.358,4.358,0,0,0,3.678.922.454.454,0,0,0,.212-.118,1.14,1.14,0,0,0-.493-2.17c-1.039,0-2,1.029-3.261.162A4.623,4.623,0,0,1,4.387,12.52c0-5.129,4.881-8.726,11.9-8.8,3.943.039,6.628,1.508,7.767,4.258a9.385,9.385,0,0,1-.264,7.055c-.468.743-1.1.731-1.741,1.142a.932.932,0,0,0-.285,1.284M40.3,3.711h4.639A11.607,11.607,0,0,0,41.8,5.018a6.558,6.558,0,0,0-1.5-1.307m-11.275.86a5.891,5.891,0,0,1,2.034,1.17,2.882,2.882,0,0,1,.958,2.2A2.508,2.508,0,0,1,30.5,9.864a3.693,3.693,0,0,0,.334-2.539,4.829,4.829,0,0,0-1.814-2.754" transform="translate(1.169 0.938)" fill="#f7ba56"/>
      </g>
    </g>
    <g id="Flourish-2" data-name="Flourish" transform="translate(40.603 154.421) rotate(-90)">
      <g id="Group_155-2" data-name="Group 155" clip-path="url(#clip-path)">
        <path id="Path_1863-2" data-name="Path 1863" d="M0,.467A.484.484,0,0,1,.485,0h54.5C61.641,0,66.892,1.774,70.17,5.13a12.292,12.292,0,0,1,3.4,6.856.462.462,0,0,1,.079.2,27.281,27.281,0,0,1,.184,3.869c0,.02,0,.039,0,.059a33.95,33.95,0,0,1-2.7,12.988.486.486,0,0,1-.707.18l-.487-.337c-.063.409-.123.807-.123.807A.468.468,0,0,1,69.7,30c-1.786,2.073-7.189.323-7.8.117a.484.484,0,0,1,.24-.934,7.657,7.657,0,0,0,6.572-2.191,14.063,14.063,0,0,0,3.949-8.48,9.494,9.494,0,0,1-8.689,5.169,6.515,6.515,0,0,1-6.352-6.527c0-.008-.005-.015-.005-.023s0-.035,0-.052,0-.039,0-.058c0-.066.009-.13.015-.195a19.333,19.333,0,0,1,.3-2.153c.4-2.26.643-4.164-.066-5.275-.463-.428-1.249-.145-1.865-.405a.785.785,0,0,1-.42-1.028.759.759,0,0,1,.79-.462.5.5,0,0,1,.11-.019.424.424,0,0,1,.1.011c3.075.648,2.9,3.7,2.48,6.33a4.425,4.425,0,0,1,3.16-1.2.479.479,0,0,1,.2.051,1.143,1.143,0,0,1,.906,1.118.928.928,0,0,1-1.055.961c-.943,0-1.347-.879-2.112-.57A3.528,3.528,0,0,0,58.6,16.866c-.005.074-.011.152-.012.22A5.539,5.539,0,0,0,64,22.709a8.559,8.559,0,0,0,8.757-8.355,11.556,11.556,0,0,0-3.276-8.548C66.386,2.641,61.374.968,54.986.968H18.022c-5.312,0-6.136,2.829-6.168,2.95a.486.486,0,0,1-.768.259C11.052,4.148,7.544,1.459.451.966A.484.484,0,0,1,0,.467M69.13,27.919a9.393,9.393,0,0,1-3.645,2.028c1.372.173,2.742.132,3.4-.488.051-.329.17-1.111.215-1.418a.448.448,0,0,1,.035-.121m2.539-3.187a12.31,12.31,0,0,1-2.246,2.917.484.484,0,0,1,.427.062l.659.455a22.963,22.963,0,0,0,1.161-3.434M6.258.968a18.6,18.6,0,0,1,4.914,2.094A5.116,5.116,0,0,1,13.38.968Z" transform="translate(0 0)" fill="#f7ba56"/>
        <path id="Path_1864-2" data-name="Path 1864" d="M28.414,14.712a.913.913,0,0,1-1.172.329.467.467,0,0,1-.274-.127A10.085,10.085,0,0,1,25.23,4.862,7.254,7.254,0,0,1,29,.969h-.785A.444.444,0,0,1,28.1.992h-.011c-5.12-.11-7.394,1.89-7.808,3.8A2.363,2.363,0,0,0,21.45,7.53a.484.484,0,0,1-.191.929c-2.291,0-4.066-1.753-4.066-3.26a3.855,3.855,0,0,1,1.263-2.9A6.788,6.788,0,0,1,20.711.969h-1.2c-2.4,0-3.979,1.89-5.648,3.89-1.708,2.048-3.474,4.166-6.239,4.166-4.255,0-5.842-2.977-5.842-4.854a.455.455,0,0,1,.03-.142,1,1,0,0,1,1.012-.807A1.014,1.014,0,0,1,3.838,4.237c0,.966-.289,2.216.729,3.036a5.617,5.617,0,0,0,3.058.785c2.311,0,3.858-1.855,5.5-3.818a16.245,16.245,0,0,1,3.3-3.27H13.259A5.34,5.34,0,0,0,8.881,3.217a.485.485,0,0,1-.735.1C6.739,2.033,2.093,1.184.421.965A.483.483,0,0,1,.484,0H26.827l.264,0,.3,0h6.26c.085,0,.168,0,.251,0,.05,0,.094,0,.144,0,.012,0,.023.005.036.007,7.368.153,12.671,4.211,12.671,9.768a5.481,5.481,0,0,1-1.99,4.337,4.358,4.358,0,0,1-3.678.922.454.454,0,0,1-.212-.118,1.14,1.14,0,0,1,.493-2.17c1.039,0,2,1.029,3.261.162a4.623,4.623,0,0,0,1.159-3.134c0-5.129-4.881-8.726-11.9-8.8-3.943.039-6.628,1.508-7.767,4.258a9.385,9.385,0,0,0,.264,7.055c.468.743,1.1.731,1.741,1.142a.932.932,0,0,1,.285,1.284M9.878.969H5.239A11.607,11.607,0,0,1,8.38,2.276,6.558,6.558,0,0,1,9.878.969m11.275.86A5.891,5.891,0,0,0,19.119,3a2.882,2.882,0,0,0-.958,2.2,2.508,2.508,0,0,0,1.512,1.923,3.693,3.693,0,0,1-.334-2.539,4.829,4.829,0,0,1,1.814-2.754" transform="translate(22.495 3.68)" fill="#f7ba56"/>
      </g>
    </g>
  </g>
</svg>
