<svg xmlns="http://www.w3.org/2000/svg" width="22.223" height="22.223" viewBox="0 0 22.223 22.223">
  <path id="Path_1373" data-name="Path 1373" d="M11.111,0A11.112,11.112,0,1,0,22.223,11.112,11.111,11.111,0,0,0,11.111,0m5.735,8.681c0,.115.007.23.007.347A7.632,7.632,0,0,1,5.1,15.459a5.446,5.446,0,0,0,.64.037,5.384,5.384,0,0,0,3.333-1.149,2.686,2.686,0,0,1-2.507-1.863,2.77,2.77,0,0,0,.5.048,2.684,2.684,0,0,0,.707-.095A2.685,2.685,0,0,1,5.629,9.806V9.771a2.654,2.654,0,0,0,1.216.335,2.688,2.688,0,0,1-.831-3.582,7.623,7.623,0,0,0,5.532,2.8,2.685,2.685,0,0,1,4.573-2.448,5.407,5.407,0,0,0,1.705-.651,2.687,2.687,0,0,1-1.181,1.484,5.323,5.323,0,0,0,1.542-.422,5.449,5.449,0,0,1-1.339,1.39" fill="#f7ba56"/>
</svg>
