<svg xmlns="http://www.w3.org/2000/svg" xmlns:xlink="http://www.w3.org/1999/xlink" width="38.45" height="312.564" viewBox="0 0 38.45 312.564">
  <defs>
    <clipPath id="clip-path">
      <rect id="Rectangle_260" data-name="Rectangle 260" width="8.806" height="213.999" fill="#1d0d1b"/>
    </clipPath>
    <clipPath id="clip-path-2">
      <rect id="Rectangle_261" data-name="Rectangle 261" width="8.806" height="312.564" fill="#1d0d1b"/>
    </clipPath>
  </defs>
  <g id="Group_348" data-name="Group 348" transform="translate(-1292.55 -482)">
    <g id="Chain" transform="translate(1292.55 482)">
      <g id="Group_188" data-name="Group 188" clip-path="url(#clip-path)">
        <path id="Path_4682" data-name="Path 4682" d="M8.807,9.035v7.091a3.366,3.366,0,0,1-3.3,3.408H3.3A3.366,3.366,0,0,1,0,16.126V9.035A3.366,3.366,0,0,1,3.3,5.627H5.5a3.367,3.367,0,0,1,3.3,3.408m-1.887,0A1.44,1.44,0,0,0,5.5,7.576H3.3A1.44,1.44,0,0,0,1.888,9.035v7.091A1.441,1.441,0,0,0,3.3,17.586H5.5a1.44,1.44,0,0,0,1.416-1.46Z" transform="translate(0 -2.721)" fill="#1d0d1b"/>
        <path id="Path_4683" data-name="Path 4683" d="M8.587,31.673V25.938a1.109,1.109,0,0,0-.944-1.217A1.109,1.109,0,0,0,6.7,25.938v5.735Z" transform="translate(-3.24 -11.954)" fill="#1d0d1b"/>
        <path id="Path_4684" data-name="Path 4684" d="M6.7,0V5.735a1.11,1.11,0,0,0,.943,1.218,1.11,1.11,0,0,0,.944-1.218V0Z" transform="translate(-3.239)" fill="#1d0d1b"/>
        <path id="Path_4685" data-name="Path 4685" d="M8.807,47.217v7.091a3.366,3.366,0,0,1-3.3,3.408H3.3A3.366,3.366,0,0,1,0,54.308V47.217a3.366,3.366,0,0,1,3.3-3.408H5.5a3.367,3.367,0,0,1,3.3,3.408m-1.887,0A1.44,1.44,0,0,0,5.5,45.758H3.3a1.44,1.44,0,0,0-1.416,1.459v7.091A1.441,1.441,0,0,0,3.3,55.768H5.5a1.44,1.44,0,0,0,1.416-1.46Z" transform="translate(0 -21.184)" fill="#1d0d1b"/>
        <path id="Path_4686" data-name="Path 4686" d="M8.587,69.854V64.119A1.11,1.11,0,0,0,7.643,62.9,1.11,1.11,0,0,0,6.7,64.119v5.735Z" transform="translate(-3.24 -30.417)" fill="#1d0d1b"/>
        <path id="Path_4687" data-name="Path 4687" d="M6.7,38.182v5.735a1.11,1.11,0,0,0,.943,1.218,1.11,1.11,0,0,0,.944-1.218V38.182Z" transform="translate(-3.239 -18.463)" fill="#1d0d1b"/>
        <path id="Path_4688" data-name="Path 4688" d="M8.807,85.4v7.09A3.366,3.366,0,0,1,5.5,95.9H3.3A3.366,3.366,0,0,1,0,92.489V85.4a3.366,3.366,0,0,1,3.3-3.408H5.5a3.367,3.367,0,0,1,3.3,3.408m-1.887,0A1.44,1.44,0,0,0,5.5,83.94H3.3A1.44,1.44,0,0,0,1.888,85.4v7.09A1.44,1.44,0,0,0,3.3,93.95H5.5a1.44,1.44,0,0,0,1.416-1.46Z" transform="translate(0 -39.648)" fill="#1d0d1b"/>
        <path id="Path_4689" data-name="Path 4689" d="M8.587,108.036V102.3a1.109,1.109,0,0,0-.944-1.217A1.109,1.109,0,0,0,6.7,102.3v5.735Z" transform="translate(-3.24 -48.88)" fill="#1d0d1b"/>
        <path id="Path_4690" data-name="Path 4690" d="M6.7,76.364V82.1a1.11,1.11,0,0,0,.943,1.218A1.11,1.11,0,0,0,8.586,82.1V76.364Z" transform="translate(-3.239 -36.927)" fill="#1d0d1b"/>
        <path id="Path_4691" data-name="Path 4691" d="M8.807,123.58v7.09a3.366,3.366,0,0,1-3.3,3.409H3.3A3.366,3.366,0,0,1,0,130.67v-7.09a3.366,3.366,0,0,1,3.3-3.408H5.5a3.367,3.367,0,0,1,3.3,3.408m-1.887,0A1.44,1.44,0,0,0,5.5,122.121H3.3a1.44,1.44,0,0,0-1.416,1.459v7.09A1.441,1.441,0,0,0,3.3,132.131H5.5A1.44,1.44,0,0,0,6.92,130.67Z" transform="translate(0 -58.11)" fill="#1d0d1b"/>
        <path id="Path_4692" data-name="Path 4692" d="M8.587,146.218v-5.735a1.109,1.109,0,0,0-.944-1.217,1.109,1.109,0,0,0-.943,1.217v5.735Z" transform="translate(-3.24 -67.343)" fill="#1d0d1b"/>
        <path id="Path_4693" data-name="Path 4693" d="M6.7,114.545v5.735a1.11,1.11,0,0,0,.943,1.218,1.11,1.11,0,0,0,.944-1.218v-5.735Z" transform="translate(-3.239 -55.389)" fill="#1d0d1b"/>
        <path id="Path_4694" data-name="Path 4694" d="M8.807,161.762v7.091a3.366,3.366,0,0,1-3.3,3.408H3.3A3.366,3.366,0,0,1,0,168.853v-7.091a3.366,3.366,0,0,1,3.3-3.408H5.5a3.367,3.367,0,0,1,3.3,3.408m-1.887,0A1.44,1.44,0,0,0,5.5,160.3H3.3a1.44,1.44,0,0,0-1.416,1.459v7.091a1.441,1.441,0,0,0,1.416,1.46H5.5a1.44,1.44,0,0,0,1.416-1.46Z" transform="translate(0 -76.574)" fill="#1d0d1b"/>
        <path id="Path_4695" data-name="Path 4695" d="M8.587,184.4v-5.735a1.11,1.11,0,0,0-.944-1.217,1.11,1.11,0,0,0-.943,1.217V184.4Z" transform="translate(-3.24 -85.806)" fill="#1d0d1b"/>
        <path id="Path_4696" data-name="Path 4696" d="M6.7,152.727v5.735a1.11,1.11,0,0,0,.943,1.218,1.11,1.11,0,0,0,.944-1.218v-5.735Z" transform="translate(-3.239 -73.853)" fill="#1d0d1b"/>
        <path id="Path_4697" data-name="Path 4697" d="M8.807,199.944v7.091a3.366,3.366,0,0,1-3.3,3.408H3.3A3.366,3.366,0,0,1,0,207.035v-7.091a3.366,3.366,0,0,1,3.3-3.408H5.5a3.367,3.367,0,0,1,3.3,3.408m-1.887,0A1.44,1.44,0,0,0,5.5,198.485H3.3a1.44,1.44,0,0,0-1.416,1.459v7.091a1.44,1.44,0,0,0,1.416,1.46H5.5a1.44,1.44,0,0,0,1.416-1.46Z" transform="translate(0 -95.037)" fill="#1d0d1b"/>
        <path id="Path_4698" data-name="Path 4698" d="M8.587,222.581v-5.735a1.11,1.11,0,0,0-.944-1.217,1.11,1.11,0,0,0-.943,1.217v5.735Z" transform="translate(-3.24 -104.269)" fill="#1d0d1b"/>
        <path id="Path_4699" data-name="Path 4699" d="M6.7,190.909v5.735a1.11,1.11,0,0,0,.943,1.218,1.11,1.11,0,0,0,.944-1.218v-5.735Z" transform="translate(-3.239 -92.316)" fill="#1d0d1b"/>
        <path id="Path_4700" data-name="Path 4700" d="M8.807,238.126v7.091a3.366,3.366,0,0,1-3.3,3.407H3.3A3.365,3.365,0,0,1,0,245.216v-7.091a3.367,3.367,0,0,1,3.3-3.409H5.5a3.367,3.367,0,0,1,3.3,3.409m-1.887,0A1.439,1.439,0,0,0,5.5,236.666H3.3a1.44,1.44,0,0,0-1.416,1.459v7.091a1.441,1.441,0,0,0,1.416,1.46H5.5a1.44,1.44,0,0,0,1.416-1.46Z" transform="translate(0 -113.5)" fill="#1d0d1b"/>
        <path id="Path_4701" data-name="Path 4701" d="M8.587,260.763v-5.735a1.11,1.11,0,0,0-.944-1.217,1.11,1.11,0,0,0-.943,1.217v5.735Z" transform="translate(-3.24 -122.733)" fill="#1d0d1b"/>
        <path id="Path_4702" data-name="Path 4702" d="M6.7,229.091v5.735a1.11,1.11,0,0,0,.943,1.218,1.11,1.11,0,0,0,.944-1.218v-5.735Z" transform="translate(-3.239 -110.779)" fill="#1d0d1b"/>
        <path id="Path_4703" data-name="Path 4703" d="M8.807,276.308v7.09a3.366,3.366,0,0,1-3.3,3.408H3.3A3.366,3.366,0,0,1,0,283.4v-7.09A3.366,3.366,0,0,1,3.3,272.9H5.5a3.367,3.367,0,0,1,3.3,3.408m-1.887,0A1.439,1.439,0,0,0,5.5,274.849H3.3a1.44,1.44,0,0,0-1.416,1.459v7.09A1.441,1.441,0,0,0,3.3,284.859H5.5A1.441,1.441,0,0,0,6.92,283.4Z" transform="translate(0 -131.963)" fill="#1d0d1b"/>
        <path id="Path_4704" data-name="Path 4704" d="M8.587,298.945V293.21a1.109,1.109,0,0,0-.944-1.217A1.109,1.109,0,0,0,6.7,293.21v5.736Z" transform="translate(-3.24 -141.196)" fill="#1d0d1b"/>
        <path id="Path_4705" data-name="Path 4705" d="M6.7,267.272v5.736a1.11,1.11,0,0,0,.943,1.218,1.11,1.11,0,0,0,.944-1.218v-5.736Z" transform="translate(-3.239 -129.242)" fill="#1d0d1b"/>
        <path id="Path_4706" data-name="Path 4706" d="M8.807,314.49v7.091a3.366,3.366,0,0,1-3.3,3.407H3.3A3.365,3.365,0,0,1,0,321.581V314.49a3.366,3.366,0,0,1,3.3-3.408H5.5a3.367,3.367,0,0,1,3.3,3.408m-1.887,0A1.44,1.44,0,0,0,5.5,313.031H3.3a1.44,1.44,0,0,0-1.416,1.459v7.091a1.441,1.441,0,0,0,1.416,1.46H5.5a1.44,1.44,0,0,0,1.416-1.46Z" transform="translate(0 -150.427)" fill="#1d0d1b"/>
        <path id="Path_4707" data-name="Path 4707" d="M8.587,337.127v-5.735a1.11,1.11,0,0,0-.944-1.217,1.11,1.11,0,0,0-.943,1.217v5.735Z" transform="translate(-3.24 -159.659)" fill="#1d0d1b"/>
        <path id="Path_4708" data-name="Path 4708" d="M6.7,305.455v5.735a1.11,1.11,0,0,0,.943,1.218,1.11,1.11,0,0,0,.944-1.218v-5.735Z" transform="translate(-3.239 -147.706)" fill="#1d0d1b"/>
        <path id="Path_4709" data-name="Path 4709" d="M8.807,352.671v7.09a3.366,3.366,0,0,1-3.3,3.409H3.3A3.366,3.366,0,0,1,0,359.761v-7.09a3.366,3.366,0,0,1,3.3-3.408H5.5a3.367,3.367,0,0,1,3.3,3.408m-1.887,0A1.439,1.439,0,0,0,5.5,351.212H3.3a1.439,1.439,0,0,0-1.416,1.459v7.09A1.441,1.441,0,0,0,3.3,361.222H5.5a1.441,1.441,0,0,0,1.416-1.461Z" transform="translate(0 -168.889)" fill="#1d0d1b"/>
        <path id="Path_4710" data-name="Path 4710" d="M8.587,375.308v-5.735a1.11,1.11,0,0,0-.944-1.217,1.11,1.11,0,0,0-.943,1.217v5.735Z" transform="translate(-3.24 -178.122)" fill="#1d0d1b"/>
        <path id="Path_4711" data-name="Path 4711" d="M6.7,343.637v5.735a1.11,1.11,0,0,0,.943,1.218,1.11,1.11,0,0,0,.944-1.218v-5.735Z" transform="translate(-3.239 -166.169)" fill="#1d0d1b"/>
        <path id="Path_4712" data-name="Path 4712" d="M8.807,390.853v7.091a3.366,3.366,0,0,1-3.3,3.408H3.3A3.366,3.366,0,0,1,0,397.944v-7.091a3.366,3.366,0,0,1,3.3-3.408H5.5a3.367,3.367,0,0,1,3.3,3.408m-1.887,0A1.439,1.439,0,0,0,5.5,389.394H3.3a1.439,1.439,0,0,0-1.416,1.459v7.091A1.441,1.441,0,0,0,3.3,399.4H5.5a1.44,1.44,0,0,0,1.416-1.46Z" transform="translate(0 -187.353)" fill="#1d0d1b"/>
        <path id="Path_4713" data-name="Path 4713" d="M6.7,381.818v5.735a1.11,1.11,0,0,0,.943,1.218,1.11,1.11,0,0,0,.944-1.218v-5.735Z" transform="translate(-3.239 -184.632)" fill="#1d0d1b"/>
      </g>
    </g>
    <g id="Chain-2" data-name="Chain" transform="translate(1322.193 482)">
      <g id="Group_190" data-name="Group 190" clip-path="url(#clip-path-2)">
        <path id="Path_4714" data-name="Path 4714" d="M8.807,9.035v7.09a3.366,3.366,0,0,1-3.3,3.409H3.3A3.366,3.366,0,0,1,0,16.125V9.035A3.366,3.366,0,0,1,3.3,5.627H5.5a3.367,3.367,0,0,1,3.3,3.408m-1.887,0A1.44,1.44,0,0,0,5.5,7.576H3.3A1.44,1.44,0,0,0,1.888,9.035v7.09A1.441,1.441,0,0,0,3.3,17.586H5.5A1.441,1.441,0,0,0,6.92,16.125Z" transform="translate(0 -2.721)" fill="#1d0d1b"/>
        <path id="Path_4715" data-name="Path 4715" d="M8.587,31.673V25.938a1.109,1.109,0,0,0-.944-1.217A1.109,1.109,0,0,0,6.7,25.938v5.735Z" transform="translate(-3.24 -11.954)" fill="#1d0d1b"/>
        <path id="Path_4716" data-name="Path 4716" d="M6.7,0V5.735a1.11,1.11,0,0,0,.943,1.218,1.11,1.11,0,0,0,.944-1.218V0Z" transform="translate(-3.239)" fill="#1d0d1b"/>
        <path id="Path_4717" data-name="Path 4717" d="M8.807,47.217v7.091a3.366,3.366,0,0,1-3.3,3.408H3.3A3.366,3.366,0,0,1,0,54.308V47.217a3.366,3.366,0,0,1,3.3-3.408H5.5a3.367,3.367,0,0,1,3.3,3.408m-1.887,0A1.44,1.44,0,0,0,5.5,45.758H3.3a1.44,1.44,0,0,0-1.416,1.459v7.091A1.441,1.441,0,0,0,3.3,55.768H5.5a1.44,1.44,0,0,0,1.416-1.46Z" transform="translate(0 -21.184)" fill="#1d0d1b"/>
        <path id="Path_4718" data-name="Path 4718" d="M8.587,69.854V64.119A1.11,1.11,0,0,0,7.643,62.9,1.11,1.11,0,0,0,6.7,64.119v5.735Z" transform="translate(-3.24 -30.417)" fill="#1d0d1b"/>
        <path id="Path_4719" data-name="Path 4719" d="M6.7,38.182v5.736a1.11,1.11,0,0,0,.943,1.218,1.11,1.11,0,0,0,.944-1.218V38.182Z" transform="translate(-3.239 -18.463)" fill="#1d0d1b"/>
        <path id="Path_4720" data-name="Path 4720" d="M8.807,85.4v7.09A3.366,3.366,0,0,1,5.5,95.9H3.3A3.366,3.366,0,0,1,0,92.489V85.4a3.366,3.366,0,0,1,3.3-3.408H5.5a3.367,3.367,0,0,1,3.3,3.408m-1.887,0A1.44,1.44,0,0,0,5.5,83.94H3.3A1.44,1.44,0,0,0,1.888,85.4v7.09A1.44,1.44,0,0,0,3.3,93.95H5.5a1.44,1.44,0,0,0,1.416-1.46Z" transform="translate(0 -39.648)" fill="#1d0d1b"/>
        <path id="Path_4721" data-name="Path 4721" d="M8.587,108.037V102.3a1.109,1.109,0,0,0-.944-1.217A1.109,1.109,0,0,0,6.7,102.3v5.735Z" transform="translate(-3.24 -48.881)" fill="#1d0d1b"/>
        <path id="Path_4722" data-name="Path 4722" d="M6.7,76.364V82.1a1.11,1.11,0,0,0,.943,1.218A1.11,1.11,0,0,0,8.586,82.1V76.364Z" transform="translate(-3.239 -36.927)" fill="#1d0d1b"/>
        <path id="Path_4723" data-name="Path 4723" d="M8.807,123.581v7.09a3.366,3.366,0,0,1-3.3,3.408H3.3A3.366,3.366,0,0,1,0,130.671v-7.09a3.366,3.366,0,0,1,3.3-3.408H5.5a3.367,3.367,0,0,1,3.3,3.408m-1.887,0A1.44,1.44,0,0,0,5.5,122.122H3.3a1.44,1.44,0,0,0-1.416,1.459v7.09A1.441,1.441,0,0,0,3.3,132.132H5.5a1.441,1.441,0,0,0,1.416-1.461Z" transform="translate(0 -58.111)" fill="#1d0d1b"/>
        <path id="Path_4724" data-name="Path 4724" d="M8.587,146.218v-5.735a1.11,1.11,0,0,0-.944-1.217,1.11,1.11,0,0,0-.943,1.217v5.735Z" transform="translate(-3.24 -67.343)" fill="#1d0d1b"/>
        <path id="Path_4725" data-name="Path 4725" d="M6.7,114.546v5.735a1.11,1.11,0,0,0,.943,1.218,1.11,1.11,0,0,0,.944-1.218v-5.735Z" transform="translate(-3.239 -55.39)" fill="#1d0d1b"/>
        <path id="Path_4726" data-name="Path 4726" d="M8.807,161.762v7.091a3.366,3.366,0,0,1-3.3,3.408H3.3A3.366,3.366,0,0,1,0,168.853v-7.091a3.366,3.366,0,0,1,3.3-3.408H5.5a3.367,3.367,0,0,1,3.3,3.408m-1.887,0A1.44,1.44,0,0,0,5.5,160.3H3.3a1.44,1.44,0,0,0-1.416,1.459v7.091a1.441,1.441,0,0,0,1.416,1.46H5.5a1.44,1.44,0,0,0,1.416-1.46Z" transform="translate(0 -76.574)" fill="#1d0d1b"/>
        <path id="Path_4727" data-name="Path 4727" d="M8.587,184.4v-5.735a1.11,1.11,0,0,0-.944-1.217,1.11,1.11,0,0,0-.943,1.217V184.4Z" transform="translate(-3.24 -85.806)" fill="#1d0d1b"/>
        <path id="Path_4728" data-name="Path 4728" d="M6.7,152.728v5.735a1.11,1.11,0,0,0,.943,1.218,1.11,1.11,0,0,0,.944-1.218v-5.735Z" transform="translate(-3.239 -73.853)" fill="#1d0d1b"/>
        <path id="Path_4729" data-name="Path 4729" d="M8.807,199.944v7.091a3.366,3.366,0,0,1-3.3,3.408H3.3A3.366,3.366,0,0,1,0,207.035v-7.091a3.366,3.366,0,0,1,3.3-3.408H5.5a3.367,3.367,0,0,1,3.3,3.408m-1.887,0A1.44,1.44,0,0,0,5.5,198.485H3.3a1.44,1.44,0,0,0-1.416,1.459v7.091a1.44,1.44,0,0,0,1.416,1.46H5.5a1.44,1.44,0,0,0,1.416-1.46Z" transform="translate(0 -95.037)" fill="#1d0d1b"/>
        <path id="Path_4730" data-name="Path 4730" d="M8.587,222.581v-5.735a1.11,1.11,0,0,0-.944-1.217,1.11,1.11,0,0,0-.943,1.217v5.735Z" transform="translate(-3.24 -104.269)" fill="#1d0d1b"/>
        <path id="Path_4731" data-name="Path 4731" d="M6.7,190.909v5.735a1.11,1.11,0,0,0,.943,1.218,1.11,1.11,0,0,0,.944-1.218v-5.735Z" transform="translate(-3.239 -92.316)" fill="#1d0d1b"/>
        <path id="Path_4732" data-name="Path 4732" d="M8.807,238.126v7.09a3.366,3.366,0,0,1-3.3,3.408H3.3A3.366,3.366,0,0,1,0,245.217v-7.09a3.367,3.367,0,0,1,3.3-3.408H5.5a3.367,3.367,0,0,1,3.3,3.408m-1.887,0A1.439,1.439,0,0,0,5.5,236.667H3.3a1.44,1.44,0,0,0-1.416,1.459v7.09A1.441,1.441,0,0,0,3.3,246.677H5.5a1.44,1.44,0,0,0,1.416-1.461Z" transform="translate(0 -113.5)" fill="#1d0d1b"/>
        <path id="Path_4733" data-name="Path 4733" d="M8.587,260.764v-5.735a1.109,1.109,0,0,0-.944-1.217,1.109,1.109,0,0,0-.943,1.217v5.735Z" transform="translate(-3.24 -122.733)" fill="#1d0d1b"/>
        <path id="Path_4734" data-name="Path 4734" d="M6.7,229.091v5.735a1.11,1.11,0,0,0,.943,1.218,1.11,1.11,0,0,0,.944-1.218v-5.735Z" transform="translate(-3.239 -110.779)" fill="#1d0d1b"/>
        <path id="Path_4735" data-name="Path 4735" d="M8.807,276.308v7.09a3.366,3.366,0,0,1-3.3,3.408H3.3A3.366,3.366,0,0,1,0,283.4v-7.09A3.366,3.366,0,0,1,3.3,272.9H5.5a3.367,3.367,0,0,1,3.3,3.408m-1.887,0A1.439,1.439,0,0,0,5.5,274.849H3.3a1.44,1.44,0,0,0-1.416,1.459v7.09A1.441,1.441,0,0,0,3.3,284.859H5.5A1.441,1.441,0,0,0,6.92,283.4Z" transform="translate(0 -131.963)" fill="#1d0d1b"/>
        <path id="Path_4736" data-name="Path 4736" d="M8.587,298.945v-5.736a1.109,1.109,0,0,0-.944-1.216,1.109,1.109,0,0,0-.943,1.216v5.736Z" transform="translate(-3.24 -141.196)" fill="#1d0d1b"/>
        <path id="Path_4737" data-name="Path 4737" d="M6.7,267.273v5.735a1.11,1.11,0,0,0,.943,1.218,1.11,1.11,0,0,0,.944-1.218v-5.735Z" transform="translate(-3.239 -129.242)" fill="#1d0d1b"/>
        <path id="Path_4738" data-name="Path 4738" d="M8.807,314.49v7.09a3.366,3.366,0,0,1-3.3,3.408H3.3A3.366,3.366,0,0,1,0,321.58v-7.09a3.366,3.366,0,0,1,3.3-3.408H5.5a3.367,3.367,0,0,1,3.3,3.408m-1.887,0A1.44,1.44,0,0,0,5.5,313.031H3.3a1.44,1.44,0,0,0-1.416,1.459v7.09A1.441,1.441,0,0,0,3.3,323.041H5.5A1.441,1.441,0,0,0,6.92,321.58Z" transform="translate(0 -150.427)" fill="#1d0d1b"/>
        <path id="Path_4739" data-name="Path 4739" d="M8.587,337.127v-5.735a1.11,1.11,0,0,0-.944-1.217,1.11,1.11,0,0,0-.943,1.217v5.735Z" transform="translate(-3.24 -159.659)" fill="#1d0d1b"/>
        <path id="Path_4740" data-name="Path 4740" d="M6.7,305.455v5.735a1.11,1.11,0,0,0,.943,1.218,1.11,1.11,0,0,0,.944-1.218v-5.735Z" transform="translate(-3.239 -147.706)" fill="#1d0d1b"/>
        <path id="Path_4741" data-name="Path 4741" d="M8.807,352.671v7.09a3.366,3.366,0,0,1-3.3,3.409H3.3A3.366,3.366,0,0,1,0,359.761v-7.09a3.366,3.366,0,0,1,3.3-3.408H5.5a3.367,3.367,0,0,1,3.3,3.408m-1.887,0A1.439,1.439,0,0,0,5.5,351.212H3.3a1.439,1.439,0,0,0-1.416,1.459v7.09A1.441,1.441,0,0,0,3.3,361.222H5.5a1.441,1.441,0,0,0,1.416-1.461Z" transform="translate(0 -168.889)" fill="#1d0d1b"/>
        <path id="Path_4742" data-name="Path 4742" d="M8.587,375.309v-5.735a1.11,1.11,0,0,0-.944-1.217,1.11,1.11,0,0,0-.943,1.217v5.735Z" transform="translate(-3.24 -178.123)" fill="#1d0d1b"/>
        <path id="Path_4743" data-name="Path 4743" d="M6.7,343.637v5.735a1.11,1.11,0,0,0,.943,1.218,1.11,1.11,0,0,0,.944-1.218v-5.735Z" transform="translate(-3.239 -166.169)" fill="#1d0d1b"/>
        <path id="Path_4744" data-name="Path 4744" d="M8.807,390.853v7.09a3.366,3.366,0,0,1-3.3,3.408H3.3A3.366,3.366,0,0,1,0,397.943v-7.09a3.366,3.366,0,0,1,3.3-3.408H5.5a3.367,3.367,0,0,1,3.3,3.408m-1.887,0A1.439,1.439,0,0,0,5.5,389.394H3.3a1.439,1.439,0,0,0-1.416,1.459v7.09A1.441,1.441,0,0,0,3.3,399.4H5.5a1.441,1.441,0,0,0,1.416-1.461Z" transform="translate(0 -187.353)" fill="#1d0d1b"/>
        <path id="Path_4745" data-name="Path 4745" d="M8.587,413.49v-5.735a1.11,1.11,0,0,0-.944-1.217,1.11,1.11,0,0,0-.943,1.217v5.735Z" transform="translate(-3.24 -196.585)" fill="#1d0d1b"/>
        <path id="Path_4746" data-name="Path 4746" d="M6.7,381.819v5.735a1.11,1.11,0,0,0,.943,1.218,1.11,1.11,0,0,0,.944-1.218v-5.735Z" transform="translate(-3.239 -184.632)" fill="#1d0d1b"/>
        <path id="Path_4747" data-name="Path 4747" d="M8.807,428.981v7.091a3.366,3.366,0,0,1-3.3,3.408H3.3A3.366,3.366,0,0,1,0,436.072v-7.091a3.366,3.366,0,0,1,3.3-3.408H5.5a3.367,3.367,0,0,1,3.3,3.408m-1.887,0A1.44,1.44,0,0,0,5.5,427.522H3.3a1.44,1.44,0,0,0-1.416,1.459v7.091A1.441,1.441,0,0,0,3.3,437.532H5.5a1.44,1.44,0,0,0,1.416-1.461Z" transform="translate(0 -205.79)" fill="#1d0d1b"/>
        <path id="Path_4748" data-name="Path 4748" d="M8.587,451.619v-5.735a1.109,1.109,0,0,0-.944-1.217,1.109,1.109,0,0,0-.943,1.217v5.735Z" transform="translate(-3.24 -215.023)" fill="#1d0d1b"/>
        <path id="Path_4749" data-name="Path 4749" d="M6.7,419.946v5.735a1.11,1.11,0,0,0,.943,1.218,1.11,1.11,0,0,0,.944-1.218v-5.735Z" transform="translate(-3.239 -203.069)" fill="#1d0d1b"/>
        <path id="Path_4750" data-name="Path 4750" d="M8.807,467.163v7.091a3.366,3.366,0,0,1-3.3,3.408H3.3A3.366,3.366,0,0,1,0,474.254v-7.091a3.366,3.366,0,0,1,3.3-3.408H5.5a3.367,3.367,0,0,1,3.3,3.408m-1.887,0A1.44,1.44,0,0,0,5.5,465.7H3.3a1.44,1.44,0,0,0-1.416,1.459v7.091a1.441,1.441,0,0,0,1.416,1.46H5.5a1.44,1.44,0,0,0,1.416-1.46Z" transform="translate(0 -224.253)" fill="#1d0d1b"/>
        <path id="Path_4751" data-name="Path 4751" d="M8.587,489.8v-5.735a1.11,1.11,0,0,0-.944-1.217,1.11,1.11,0,0,0-.943,1.217V489.8Z" transform="translate(-3.24 -233.486)" fill="#1d0d1b"/>
        <path id="Path_4752" data-name="Path 4752" d="M6.7,458.128v5.735a1.11,1.11,0,0,0,.943,1.218,1.11,1.11,0,0,0,.944-1.218v-5.735Z" transform="translate(-3.239 -221.532)" fill="#1d0d1b"/>
        <path id="Path_4753" data-name="Path 4753" d="M8.807,505.345v7.091a3.366,3.366,0,0,1-3.3,3.408H3.3A3.365,3.365,0,0,1,0,512.436v-7.091a3.366,3.366,0,0,1,3.3-3.408H5.5a3.367,3.367,0,0,1,3.3,3.408m-1.887,0A1.44,1.44,0,0,0,5.5,503.886H3.3a1.44,1.44,0,0,0-1.416,1.459v7.091A1.44,1.44,0,0,0,3.3,513.9H5.5a1.44,1.44,0,0,0,1.416-1.46Z" transform="translate(0 -242.716)" fill="#1d0d1b"/>
        <path id="Path_4754" data-name="Path 4754" d="M8.587,527.983v-5.735a1.109,1.109,0,0,0-.944-1.217,1.109,1.109,0,0,0-.943,1.217v5.735Z" transform="translate(-3.24 -251.95)" fill="#1d0d1b"/>
        <path id="Path_4755" data-name="Path 4755" d="M6.7,496.31v5.735a1.11,1.11,0,0,0,.943,1.218,1.11,1.11,0,0,0,.944-1.218V496.31Z" transform="translate(-3.239 -239.995)" fill="#1d0d1b"/>
        <path id="Path_4756" data-name="Path 4756" d="M8.807,543.527v7.091a3.366,3.366,0,0,1-3.3,3.408H3.3A3.366,3.366,0,0,1,0,550.618v-7.091a3.366,3.366,0,0,1,3.3-3.408H5.5a3.367,3.367,0,0,1,3.3,3.408m-1.887,0A1.44,1.44,0,0,0,5.5,542.068H3.3a1.44,1.44,0,0,0-1.416,1.459v7.091A1.441,1.441,0,0,0,3.3,552.078H5.5a1.44,1.44,0,0,0,1.416-1.461Z" transform="translate(0 -261.18)" fill="#1d0d1b"/>
        <path id="Path_4757" data-name="Path 4757" d="M8.587,566.164v-5.735a1.11,1.11,0,0,0-.944-1.217,1.11,1.11,0,0,0-.943,1.217v5.735Z" transform="translate(-3.24 -270.412)" fill="#1d0d1b"/>
        <path id="Path_4758" data-name="Path 4758" d="M6.7,534.492v5.735a1.11,1.11,0,0,0,.943,1.218,1.11,1.11,0,0,0,.944-1.218v-5.735Z" transform="translate(-3.239 -258.459)" fill="#1d0d1b"/>
        <path id="Path_4759" data-name="Path 4759" d="M8.807,581.708V588.8a3.366,3.366,0,0,1-3.3,3.408H3.3A3.366,3.366,0,0,1,0,588.8v-7.091A3.366,3.366,0,0,1,3.3,578.3H5.5a3.367,3.367,0,0,1,3.3,3.408m-1.887,0A1.44,1.44,0,0,0,5.5,580.249H3.3a1.44,1.44,0,0,0-1.416,1.459V588.8a1.441,1.441,0,0,0,1.416,1.46H5.5A1.44,1.44,0,0,0,6.92,588.8Z" transform="translate(0 -279.643)" fill="#1d0d1b"/>
        <path id="Path_4760" data-name="Path 4760" d="M6.7,572.674v5.735a1.11,1.11,0,0,0,.943,1.218,1.11,1.11,0,0,0,.944-1.218v-5.735Z" transform="translate(-3.239 -276.922)" fill="#1d0d1b"/>
      </g>
    </g>
  </g>
</svg>
