<svg xmlns="http://www.w3.org/2000/svg" width="22.223" height="22.223" viewBox="0 0 22.223 22.223">
  <g id="Group_349" data-name="Group 349" transform="translate(-85.295)">
    <path id="Path_1375" data-name="Path 1375" d="M332.206,25.519q.315,0,.386-.455c.01-.067.014-.315.014-.746v-.388c0-.4-.005-.645-.018-.727q-.073-.453-.375-.453c-.2,0-.318.133-.366.4a5.225,5.225,0,0,0-.024.669v.368c0,.491,0,.759.009.8.042.356.166.532.375.532" transform="translate(-236.116 -16.189)" fill="#f7ba56"/>
    <path id="Path_1376" data-name="Path 1376" d="M328.534,47.314a1.561,1.561,0,0,1-.033.395.253.253,0,0,1-.255.205.234.234,0,0,1-.236-.189,1.449,1.449,0,0,1-.033-.365V45.284h-.611v2.5c0,.508.2.765.611.765a.619.619,0,0,0,.574-.4v.316h.621V45.284h-.638Z" transform="translate(-232.945 -32.223)" fill="#f7ba56"/>
    <path id="Path_1377" data-name="Path 1377" d="M336.691,42.6a.549.549,0,0,0-.537.353V41.634h-.633v4.23h.6v-.333a.561.561,0,0,0,.556.417q.482,0,.637-.6a4.7,4.7,0,0,0,.083-1.059,5.179,5.179,0,0,0-.076-1.074c-.1-.41-.31-.614-.631-.614m.055,2.305q-.049.435-.281.435c-.165,0-.268-.118-.309-.356a4.2,4.2,0,0,1-.022-.579c0-.4,0-.635.012-.7.04-.327.146-.49.319-.49.156,0,.249.145.284.437.007.052.009.262.009.628s0,.563-.012.623" transform="translate(-238.749 -29.626)" fill="#f7ba56"/>
    <path id="Path_1378" data-name="Path 1378" d="M318.518,42.332h.781v3.531h.677V42.333h.781v-.7h-2.239Z" transform="translate(-226.649 -29.625)" fill="#f7ba56"/>
    <path id="Path_1379" data-name="Path 1379" d="M344.373,44.992a.867.867,0,0,0-.761.332,1.286,1.286,0,0,0-.186.593c-.014.129-.022.343-.022.645,0,.374.008.63.022.766a1.476,1.476,0,0,0,.219.706.814.814,0,0,0,.712.3.907.907,0,0,0,.7-.249,1.176,1.176,0,0,0,.227-.8.617.617,0,0,0,0-.062c0-.027,0-.047,0-.061h-.6q0,.623-.318.622c-.144,0-.237-.1-.284-.31a2.671,2.671,0,0,1-.033-.506,1.727,1.727,0,0,1,.007-.2H345.3v-.243a2.415,2.415,0,0,0-.189-1.173.818.818,0,0,0-.739-.36m.292,1.271h-.613c0-.029,0-.059,0-.091l0-.043a.87.87,0,0,1,.072-.448.252.252,0,0,1,.239-.126.259.259,0,0,1,.266.184,1.235,1.235,0,0,1,.042.389Z" transform="translate(-244.358 -32.015)" fill="#f7ba56"/>
    <path id="Path_1380" data-name="Path 1380" d="M306.839,0a11.112,11.112,0,1,0,11.112,11.112A11.111,11.111,0,0,0,306.839,0m1.475,5.957h.763V8.551a1.778,1.778,0,0,0,.042.457.291.291,0,0,0,.295.237.313.313,0,0,0,.316-.257,1.934,1.934,0,0,0,.044-.5V5.957h.8V9.928h-.777V9.534a.773.773,0,0,1-.718.5q-.764,0-.763-.958Zm-2.814.531a1.149,1.149,0,0,1,2.058,0,4.237,4.237,0,0,1,.175,1.456,4.227,4.227,0,0,1-.175,1.456,1.15,1.15,0,0,1-2.058,0,4.24,4.24,0,0,1-.174-1.453,4.275,4.275,0,0,1,.174-1.456m-2.494-1.849.688,1.99.68-1.99h.913l-1.173,3.047V9.928h-.854V7.686l-1.193-3.047Zm9.469,11.254a1.8,1.8,0,0,1-1.892,1.693h-7.489a1.8,1.8,0,0,1-1.892-1.693V12.626a1.8,1.8,0,0,1,1.892-1.693h7.489a1.8,1.8,0,0,1,1.892,1.692Z" transform="translate(-210.433)" fill="#f7ba56"/>
  </g>
</svg>
